<?xml version="1.0" encoding="UTF-8"?>
<!-- Created with Inkscape (http://www.inkscape.org/) -->
<svg width="219.63mm" height="78.124mm" version="1.1" viewBox="0 0 219.63 78.124" xmlns="http://www.w3.org/2000/svg" xmlns:cc="http://creativecommons.org/ns#" xmlns:dc="http://purl.org/dc/elements/1.1/" xmlns:rdf="http://www.w3.org/1999/02/22-rdf-syntax-ns#">
 <metadata>
  <rdf:RDF>
   <cc:Work rdf:about="">
    <dc:format>image/svg+xml</dc:format>
    <dc:type rdf:resource="http://purl.org/dc/dcmitype/StillImage"/>
    <dc:title/>
   </cc:Work>
  </rdf:RDF>
 </metadata>
 <g transform="translate(-385.59 -166.27)">
  <g transform="translate(367.33 80.113)" stroke-width=".26458">
   <path d="m48.608 164.21c-0.43656-0.14014-1.1682-0.18561-1.6258-0.10105-0.52444-0.0992-0.60883-0.14359-1.355-0.13389-1.3475-0.27429-1.1429-0.264-1.9294-0.379-3.146-0.45997-6.1338-1.1981-9.5268-2.9811-3.7889-1.991-5.4457-4.2895-6.1786-8.5716-0.42512-2.4837-0.26739-3.0132 0.71231-2.391 2.3396 1.4857 5.4652 2.6234 8.7834 3.197 0.73166 0.12649 1.6279 0.30022 1.9917 0.38607 0.3638 0.0859 1.3758 0.21104 2.249 0.27819 0.87312 0.0672 2.1233 0.18242 2.7781 0.25616 1.5105 0.17007 11.119 0.16793 12.7-3e-3 0.65484-0.0707 1.7859-0.17896 2.5135-0.24054 2.0575-0.17415 7.8691-1.4162 9.5749-2.0463 0.84569-0.3124 2.1317-0.96202 2.8578-1.4436 1.7464-1.1583 1.9608-0.81768 1.3289 2.1112-0.7324 3.3945-1.1951 4.3924-2.7814 5.9989-2.5428 2.5752-7.2719 4.7086-12.039 5.4311-1.9898 0.30158-2.9958 0.42586-4.101 0.50664-0.65484 0.0479-2.2172 0.0444-3.3086 0.12512-1.0914 0.0807-1.9991 0.0404-2.6445 4.6e-4zm-6.0854-12.925c-2.9819-1.3581-5.3513-6.4417-4.3775-9.3922 0.30852-0.93482 1.0904-1.6475 1.4323-1.3056 0.09189 0.0919 0.16708 0.90222 0.16708 1.8007 0 3.1564 1.4946 6.1193 4.0232 7.9754 0.96033 0.70495 1.2161 1.021 0.95841 1.1843-0.52368 0.332-1.0303 0.27159-2.2035-0.26272zm2.3417-1.0748c-1.5265-0.69314-2.9228-2.2708-3.8278-4.325-1.082-2.4558-1.2185-3.7848-0.5451-5.307 0.60591-1.3698 1.9115-2.2164 2.9955-1.9425 1.1471 0.28986 3.1034 1.7268 3.8151 2.8024 0.92136 1.3923 1.9675 4.2999 1.9675 5.4684 0 1.26-0.89806 2.9237-1.8415 3.4116-0.9871 0.51045-1.224 0.50049-2.5636-0.1078zm-18.138-3.1279c-3.6086-3.7501-6.6824-9.9554-8.0276-16.206-0.58443-2.7155-0.58126-8.4097 0.0064-11.487 0.47152-2.4696 1.9183-6.9206 2.8422-8.7438 0.80994-1.5984 3.7609-5.9347 4.939-7.2575 1.4151-1.589 1.7664-1.3836 2.0059 1.1729 0.25342 2.7044 1.0174 5.3994 2.1721 7.6627 2.874 5.6331 6.9532 9.2019 13.182 11.532 1.4434 0.54005 2.1144 1.2009 1.7671 1.7404-0.20908 0.32477-1.7464 1.1471-2.1444 1.1471-0.14902 0-1.4208 0.56339-2.8262 1.252-2.0568 1.0078-3.0352 1.7062-5.0156 3.5805-4.3684 4.1342-6.5684 8.4432-7.124 13.953-0.20008 1.9843-0.35727 2.6458-0.62864 2.6458-0.10618 0-0.62269-0.44648-1.1478-0.99219zm46.673 0.67408c-0.17429-0.17429-0.31689-0.83388-0.31689-1.4658 0-4.7831-3.1344-11.324-7.163-14.947-2.0381-1.833-5.4807-3.9372-7.5214-4.5973-1.777-0.57477-2.5135-1.07-2.5135-1.6902 0-0.55149 0.76568-1.035 2.5135-1.5872 2.0428-0.64543 5.5059-2.7827 7.4632-4.6059 4.2458-3.955 6.7279-8.8641 7.1306-14.103 0.21531-2.8011 0.5529-3.0318 2.0217-1.3812 2.5587 2.8753 5.2343 7.4047 6.4259 10.878 1.4574 4.248 1.7715 6.1498 1.7838 10.798 0.01034 3.9021-0.06464 4.6647-0.70619 7.1827-1.316 5.1649-3.1374 8.9941-6.1483 12.926-1.6696 2.1801-2.5837 2.9781-2.9695 2.5923zm-20.094-1.4517c-1.0475-0.53947-1.1769-1.2629-0.19232-1.0747 1.1287 0.21577 4.3828-0.80467 5.9359-1.8614 1.2595-0.85698 1.9797-1.6468 3.5401-3.8823 0.35733-0.51192 0.36557-0.51145 0.65919 0.0372 0.41463 0.77474-0.24794 2.6237-1.4387 4.0148-1.9873 2.3217-6.5105 3.7931-8.5042 2.7663zm-1.3016-2.1686c-0.60672-0.28298-1.2318-0.75493-1.3891-1.0488-1.048-1.9583 0.88553-5.1569 4.0797-6.749 3.5819-1.7853 6.3058-1.4542 7.2743 0.88413 0.75725 1.8282-1.3769 4.8023-4.5237 6.3041-2.2783 1.0873-4.0027 1.2805-5.4413 0.60953zm75.716-2.6237c-3.1413-0.54995-3.5719-1.0005-3.5719-3.7378 0-2.4924 0.20302-2.7828 2.1234-3.0375 1.6701-0.22155 2.11 0.0768 2.11 1.4311 0 1.1528 0.25625 1.4109 1.7682 1.7807 1.609 0.39352 3.2884-0.0578 4.3709-1.1746 0.8098-0.83551 0.87625-1.0414 0.96469-2.9889l0.095-2.0916-1.7339 0.87238c-1.5488 0.77927-1.9401 0.86569-3.6655 0.80969-2.2611-0.0734-3.6579-0.60012-4.4165-1.6655-1.1537-1.6202-1.3418-2.6404-1.5319-8.3104l-0.1398-4.1691-0.69984-0.1711c-0.87892-0.21489-1.0876-0.52583-1.0927-1.6284-8e-3 -1.7678 0.22483-1.9008 3.33-1.9008 1.5324 0 3.0165 0.12325 3.298 0.27389 0.48311 0.25856 0.51177 0.61336 0.51177 6.3352 0 5.9956 7e-3 6.0693 0.62717 6.7905 1.211 1.4079 3.5921 0.77679 4.5984-1.2187 0.51949-1.0302 0.59531-1.5882 0.59531-4.3812 0-3.404-0.18069-4.0097-1.2578-4.2159-0.98316-0.18828-1.1235-0.38764-1.1235-1.5961 0-1.789 0.35697-1.9877 3.5719-1.9877 2.1783 0 2.8286 0.0883 3.1709 0.43054 0.38512 0.38512 0.42178 1.4528 0.34751 10.12-0.0779 9.089-0.11682 9.7691-0.62799 10.969-0.81347 1.9095-1.8728 3.0737-3.4565 3.7988-1.2197 0.55841-1.8579 0.65747-4.5279 0.70282-1.7094 0.029-3.3462 0.0111-3.6372-0.0398zm-79.441-4.1965c-0.58971-0.23795-0.35334-0.59623 0.77216-1.1704 1.4419-0.73559 3.4489-2.8146 4.1849-4.3349 0.32187-0.66489 0.72599-2.0444 0.89806-3.0656 0.17206-1.0212 0.42821-1.8821 0.56921-1.9131 0.141-0.031 0.47081 0.36033 0.73289 0.86965 1.8017 3.5014-3.7673 10.982-7.1572 9.6144zm-2.712-1.4717c-3.1643-1.6494-0.95404-8.3988 3.4969-10.678 0.68638-0.35155 1.5198-0.63497 1.8521-0.62981 1.486 0.0231 2.8484 1.5773 2.8513 3.2528 0.0021 1.2959-1.1745 4.2527-2.2036 5.537-1.6769 2.0927-4.5216 3.2874-5.9968 2.5185zm128.39-1.5082c-2.2314-0.76051-3.3568-1.7047-4.3845-3.6787-1.747-3.3557-1.809-7.6223-0.15868-10.926 0.94758-1.8968 1.9748-2.916 3.88-3.8498 2.0574-1.0084 5.3152-1.0693 7.3404-0.13739 3.2613 1.5008 4.5755 4.1609 4.4695 9.0471-0.11616 5.3536-2.005 8.2431-6.2528 9.5652-1.9246 0.59901-3.091 0.59416-4.894-0.0203zm4.3585-3.8875c1.1274-0.71083 1.4522-1.4579 2.094-4.8164 0.0924-0.48339 0.0215-1.555-0.15746-2.3812-0.17897-0.8263-0.38062-1.7855-0.44813-2.1316-0.0675-0.34607-0.47897-0.98547-0.91439-1.4209-0.73292-0.73293-0.9021-0.7825-2.2802-0.66822-2.615 0.21685-3.4025 1.8571-3.1816 6.6264 0.11465 2.4747 0.21972 2.9822 0.7984 3.8567 1.0055 1.5194 2.5886 1.8815 4.0894 0.93527zm14.225 4.0385c-2.4498-0.8019-3.1257-1.4447-3.9192-3.7272-0.15473-0.44506-0.34824-3.1878-0.43001-6.095l-0.14868-5.2858-0.79375-0.26698c-1.0172-0.34215-1.1816-0.58827-1.1866-1.7763-7e-3 -1.5796 0.43487-1.8054 3.5206-1.8008 1.4812 2e-3 2.8507 0.104 3.0434 0.22616 0.27435 0.17394 0.34409 1.4482 0.32163 5.8767-0.0316 6.2364 0.21799 7.9714 1.2436 8.6434 0.93256 0.61104 2.8359 0.30278 3.7932-0.61432l0.77364-0.74119v-4.8453c0-3.0318-0.099-4.8577-0.26459-4.8784-0.14552-0.0182-0.38364-0.0628-0.52916-0.0992s-0.38365-0.081-0.52917-0.0992-0.26458-0.73471-0.26458-1.5923c0-1.1777 0.10239-1.5985 0.41851-1.7198 0.85731-0.32898 5.5902-0.17495 5.8946 0.19184 0.1931 0.23268 0.3165 2.7213 0.36313 7.3233l0.0706 6.9708 0.79344 0.21208c1.0335 0.27626 1.4555 0.88693 1.4555 2.1064 0 1.5865-0.44202 1.8204-3.4396 1.8204-2.6382 0-3.4396-0.27053-3.4396-1.1612 0-0.20934-0.65173-0.0106-1.7859 0.54452-2.1184 1.0369-3.5195 1.2593-4.9609 0.78744zm35.454 0.0689c-4.0113-0.53547-4.3656-0.84486-4.3656-3.8115 0-2.656 0.33182-3.1886 1.832-2.9405 0.52038 0.0861 1.1545 0.15783 1.4092 0.15943 0.33346 2e-3 0.46302 0.21682 0.46302 0.76736 0 1.2358 0.77563 1.94 2.3608 2.1434 2.3068 0.29593 3.8459-0.89791 3.1025-2.4065-0.24185-0.49077-0.93739-0.84287-3.0862-1.5623-3.4447-1.1532-4.2858-1.6528-5.0391-2.993-0.46083-0.81994-0.59232-1.4661-0.58248-2.8626 0.0185-2.6226 0.80803-3.8754 3.1766-5.0402 1.6326-0.80291 1.9779-0.87367 4.1652-0.85366 1.8737 0.0172 2.7243 0.15895 3.9681 0.66146 1.4881 0.60125 1.5944 0.70314 1.7707 1.698 0.30403 1.7154 0.24656 3.4834-0.12322 3.7903-0.43155 0.35816-3.0656 0.31302-3.294-0.0564-0.0939-0.15198-0.23724-0.68514-0.31845-1.1848-0.12245-0.75329-0.31104-0.96502-1.1042-1.2396-2.3749-0.82222-4.4792 0.90199-3.1551 2.5853 0.40383 0.51338 1.245 0.91336 3.195 1.5192 2.1884 0.67987 2.8474 1.0155 3.8048 1.9375 1.8188 1.7517 2.1949 3.8366 1.1115 6.1632-0.73587 1.5803-1.5433 2.2782-3.4698 2.999-1.8205 0.68115-3.5167 0.83474-5.8212 0.5271zm-135.28-0.55718c-0.17462-0.17463-0.3175-0.8805-0.3175-1.5686 0-1.3968 0.47453-2.0826 1.441-2.0826 0.81444 0 1.0355-0.92676 1.1046-4.6302 0.02984-1.6007 0.12464-3.7438 0.21065-4.7625 0.08601-1.0186 0.18566-3.0723 0.22143-4.5636 0.0613-2.5555 0.03459-2.7118-0.46413-2.716-1.0365-9e-3 -1.222-0.35725-1.1382-2.1372l0.07986-1.6957 3.0427-0.0768c1.6735-0.0422 3.2953-0.014 3.6039 0.0626 0.66617 0.16549 0.83362 0.5418 3.9504 8.8777 1.2786 3.4197 2.3642 6.2673 2.4123 6.328 0.18582 0.23406 0.44149-0.38057 3.1309-7.5267 1.5246-4.0511 2.9221-7.4609 3.1055-7.5773s1.7877-0.21348 3.5653-0.21571c3.6514-5e-3 3.7796 0.0659 3.7796 2.0763 0 1.1955-0.52817 1.8884-1.4395 1.8884-0.49206 0-0.63717 0.18006-0.76124 0.94463-0.0843 0.51955-0.0326 1.262 0.11488 1.65 0.1475 0.38795 0.26155 1.6 0.25346 2.6934-8e-3 1.0934 0.0522 3.0001 0.13404 4.237 0.0818 1.2369 0.19308 3.261 0.24723 4.4979 0.0542 1.2369 0.10514 2.3383 0.11332 2.4474 8e-3 0.10914 0.36356 0.19844 0.78973 0.19844 1.1011 0 1.6064 0.62416 1.6064 1.9844 0 1.8861-0.23583 1.9844-4.7625 1.9844s-4.7625-0.0983-4.7625-1.9844c0-1.2922 0.50029-1.9844 1.4343-1.9844 0.5759 0 0.61059-0.11896 0.77755-2.6667 0.0961-1.4667 0.0861-2.8062-0.0223-2.9766-0.10839-0.17041-0.19891-1.2266-0.20113-2.3471-2e-3 -1.1341-0.13422-2.1675-0.29766-2.3309-0.29408-0.29407-0.49364 0.16524-3.8279 8.8105l-1.101 2.8548-4.0114-0.1534-2.2994-5.9531c-1.2647-3.2742-2.4017-5.8936-2.5267-5.8208-0.20719 0.12061-0.25653 1.1802-0.3149 6.7628-0.01074 1.0274-0.14681 2.2027-0.30236 2.6119-0.35125 0.92386 0.0081 1.4476 0.87908 1.2811 0.92022-0.17592 1.4953 0.55939 1.4953 1.912 0 1.8839-0.23945 1.9844-4.7285 1.9844-2.6782 0-3.9962-0.0993-4.2144-0.3175zm50.665 0.14757c-0.10056-0.10057-0.18285-0.92417-0.18285-1.8302 0-1.7061 0.17552-1.9686 1.3162-1.9686 0.26357 0 0.55149-0.18833 0.63982-0.41852 0.0883-0.23018 0.1606-3.9141 0.1606-8.1865 0-8.2174 0.0131-8.1319-1.2589-8.1876-0.8128-0.0356-1.1133-0.54828-1.1183-1.9078-7e-3 -1.832 0.25147-1.9371 4.7584-1.9371s4.7652 0.1051 4.7584 1.9371c-5e-3 1.4153-0.24966 1.7776-1.3508 2.0022l-0.8941 0.18237-0.075 2.8266c-0.0904 3.4053-0.50661 3.1565 5.1021 3.0493l3.9688-0.0759 0.1496-5.9531h-0.65123c-0.98094 0-1.4828-0.6716-1.4828-1.9844 0-1.9266 0.21264-2.0086 4.9864-1.9248l4.1417 0.0727 0.0799 1.6957c0.085 1.8054-0.0975 2.1292-1.2043 2.1367l-0.59532 4e-3v16.669h0.60855c0.33469 0 0.75141 0.14287 0.92604 0.3175 0.44549 0.44549 0.40864 2.9816-0.0488 3.3613-0.24988 0.20738-1.6588 0.28077-4.4318 0.23084l-4.0654-0.0732-0.0799-1.6957c-0.085-1.8054 0.0975-2.1292 1.2044-2.1367 0.58406-4e-3 0.59531-0.0641 0.59531-3.179v-3.175h-9.2604v3.175c0 3.115 0.0113 3.1751 0.59531 3.179 1.1069 8e-3 1.2894 0.33134 1.2043 2.1367l-0.0799 1.6957-4.1166 0.0726c-2.2641 0.0399-4.1989-0.01-4.2995-0.11024zm64.484-0.19234c-0.0765-0.19925-0.10249-1.0029-0.0578-1.7859 0.0738-1.2935 0.14165-1.4314 0.74263-1.5085 1.223-0.1569 1.3229-0.59407 1.3229-5.7865 0-4.4914-0.0385-4.8828-0.52917-5.3734-0.29104-0.29104-0.82682-0.52917-1.1906-0.52917-0.3638 0-0.67122-0.14882-0.68315-0.33073-0.10665-1.626 0.0108-2.6748 0.3217-2.8718 0.1988-0.12594 1.5138-0.23081 2.9222-0.23304 2.6615-4e-3 3.3923 0.26544 3.3923 1.2516 0 0.35345 0.0992 0.33342 0.59531-0.12024 1.6092-1.4714 4.5113-1.991 6.4924-1.1622 1.1866 0.49639 1.379 0.97495 1.379 3.4301 0 2.4293-0.22353 2.8039-1.8357 3.0762-1.6416 0.27735-2.0779 0.0223-2.2812-1.3335-0.17195-1.1466-0.20163-1.1772-1.1387-1.1714-1.0267 6e-3 -1.9057 0.55804-2.3864 1.4981-0.18236 0.35658-0.29555 2.2485-0.29555 4.9399v4.362l0.7276 0.15778c0.40018 0.0868 1.0165 0.21251 1.3696 0.27941 0.82262 0.15584 1.0687 0.56122 1.0737 1.7688 7e-3 1.713-0.26323 1.8048-5.3148 1.8048-3.5541 0-4.5162-0.0753-4.6263-0.36227zm-155.1-12.025c-0.26504-0.17554-0.27663-0.37647-0.0504-0.873 0.5721-1.2556-0.70898-3.0932-3.5892-5.1485-2.946-2.1022-8.7865-4.5367-12.023-5.0117-2.6917-0.39496-3.3942-0.67445-3.6677-1.4592-0.1435-0.41164-0.20353-0.96782-0.1334-1.236 0.07012-0.26815-0.05723-0.84182-0.28301-1.2748-0.74254-1.424-0.36748-3.829 0.59732-3.8302 0.09875-1.2e-4 1.028-0.17723 2.065-0.39358 5.129-1.07 7.8413-1.3051 15.18-1.3156 7.1628-0.0102 9.4063 0.16155 13.891 1.0637 3.1524 0.63418 3.7635 0.86863 3.9354 1.5098 0.39227 1.4635-0.0657 4.1403-1.1989 7.0072-0.63309 1.6017-1.0274 1.7211-2.5433 0.76972-1.7604-1.1047-6.5085-2.7606-10.006-3.4897-6.7838-1.414-13.879-1.8231-18.762-1.0819l-2.3812 0.36151 1.9844 0.0383c1.7722 0.0342 5.9182 0.62843 9.2796 1.3301 1.8846 0.39338 7.0445 2.1142 9.2589 3.0878 3.6623 1.6102 7.3127 4.0014 7.9627 5.2158 0.26033 0.48644 0.17468 0.66464-0.67075 1.3955-2.1322 1.8431-7.8447 3.997-8.8445 3.3347zm-10.044-1.6512c-3.5575-1.824-6.2395-4.4435-7.8955-7.7116-0.75231-1.4846-0.74579-1.4333-0.20852-1.6395 0.46448-0.17823 3.0918 1.0162 5.3956 2.453 3.1464 1.9623 6.35 5.3336 6.35 6.6823 0 0.54564-0.68605 1.29-1.1889 1.29-0.19657 0-1.3002-0.4834-2.4526-1.0742zm-14.995-19.537c-0.21518-0.34818 0.59234-4.3628 1.2092-6.0115 1.5418-4.1209 8.313-7.5833 16.502-8.4382 1.6733-0.17469 8.7667-0.18706 10.794-0.01883 3.3112 0.27475 9.2284 2.1004 11.8 3.6406 3.0916 1.8518 4.2481 3.4385 5.2169 7.1569 0.69531 2.6689 0.73767 3.0683 0.38461 3.6262-0.19765 0.31232-0.40239 0.25393-1.1744-0.33492-0.51427-0.39225-1.4795-0.94657-2.145-1.2318-1.5875-0.68047-5.991-1.8743-7.3777-2.0002-0.6017-0.05461-1.4512-0.16779-1.8878-0.25151-0.79615-0.15268-2.1842-0.25827-6.6146-0.50314-3.1335-0.1732-4.2679-0.17436-7.276-0.0075-4.331 0.24029-5.6597 0.34195-6.6146 0.50605-0.50932 0.08753-1.3058 0.20417-1.77 0.2592-3.091 0.36642-7.6753 1.8759-9.3238 3.0701-1.1304 0.81886-1.4813 0.92856-1.7223 0.53851z" fill="#b48f61"/>
   <path d="m48.608 164.21c0.0188 2e-3 -1.1995-0.0997-1.6425-0.11775-0.4353-0.0213-1.0705-0.0894-1.4135-0.1506-1.1888-0.19912-1.2556-0.18292-1.9962-0.32053-3.2886-0.61104-5.7914-1.1062-9.3848-3.0061-3.7839-2.0006-5.4457-4.2895-6.1786-8.5716-0.42512-2.4837-0.26739-3.0132 0.71231-2.391 2.3396 1.4857 5.4652 2.6234 8.7834 3.197 0.73166 0.12649 1.6279 0.30022 1.9917 0.38607 0.3638 0.0859 1.3758 0.21104 2.249 0.27819 0.87312 0.0672 2.1233 0.18242 2.7781 0.25616 1.5105 0.17007 11.119 0.16793 12.7-3e-3 0.65484-0.0707 1.7859-0.17896 2.5135-0.24054 2.0575-0.17415 7.8691-1.4162 9.5749-2.0463 0.84569-0.3124 2.1317-0.96202 2.8578-1.4436 1.7464-1.1583 1.9608-0.81768 1.3289 2.1112-0.7324 3.3945-1.1951 4.3924-2.7814 5.9989-2.5428 2.5752-7.2719 4.7086-12.039 5.4311-1.9898 0.30158-2.9958 0.42586-4.101 0.50664-0.65484 0.0479-2.0919 0.11127-3.1834 0.19194-1.0998-0.0457-2.091-0.0103-2.7698-0.0662zm-5.9531-13.256c-2.0413-0.80971-3.9852-4.0675-4.165-6.9801-0.08282-1.342-0.01-1.9904 0.26441-2.3542 0.34258-0.45418 0.39286-0.31493 0.52708 1.4598 0.21435 2.8342 1.3414 4.9934 3.7429 7.1703 1.0727 0.97238 0.94076 1.2238-0.36939 0.70416zm2.249-1.1309c-1.9187-0.84068-3.9094-3.9591-4.2458-6.6509-0.20452-1.6369-0.05174-2.2315 0.84799-3.3008 0.86959-1.0334 1.9695-1.0452 3.5578-0.0379 3.4648 2.1973 4.911 8.8198 2.1961 10.057-0.83948 0.3825-1.3637 0.36753-2.3561-0.0672zm-18.178-2.7404c-3.6086-3.7501-6.6824-9.9554-8.0276-16.206-0.58443-2.7155-0.58126-8.4097 0.0064-11.487 0.47152-2.4696 1.9183-6.9206 2.8422-8.7438 0.80994-1.5984 3.7609-5.9347 4.939-7.2575 1.4151-1.589 1.7664-1.3836 2.0059 1.1729 0.25342 2.7044 1.0174 5.3994 2.1721 7.6627 2.874 5.6331 6.9532 9.2019 13.182 11.532 1.4434 0.54005 2.1144 1.2009 1.7671 1.7404-0.20908 0.32477-1.7464 1.1471-2.1444 1.1471-0.14902 0-1.4208 0.56339-2.8262 1.252-2.0568 1.0078-3.0352 1.7062-5.0156 3.5805-4.3684 4.1342-6.5684 8.4432-7.124 13.953-0.20008 1.9843-0.35727 2.6458-0.62864 2.6458-0.10618 0-0.62269-0.44648-1.1478-0.99219zm46.673 0.67408c-0.17429-0.17429-0.31689-0.83388-0.31689-1.4658 0-4.7831-3.1344-11.324-7.163-14.947-2.0381-1.833-5.4807-3.9372-7.5214-4.5973-1.777-0.57477-2.5135-1.07-2.5135-1.6902 0-0.55149 0.76568-1.035 2.5135-1.5872 2.0428-0.64543 5.5059-2.7827 7.4632-4.6059 4.2458-3.955 6.7279-8.8641 7.1306-14.103 0.21531-2.8011 0.5529-3.0318 2.0217-1.3812 2.5587 2.8753 5.2343 7.4047 6.4259 10.878 1.4574 4.248 1.7715 6.1498 1.7838 10.798 0.01034 3.9021-0.06464 4.6647-0.70619 7.1827-1.316 5.1649-3.1374 8.9941-6.1483 12.926-1.6696 2.1801-2.5837 2.9781-2.9695 2.5923zm-19.631-1.7624c0-0.12564 0.72258-0.38177 1.6057-0.56919 2.405-0.51038 5.3497-2.4272 6.5964-4.2938 1.1889-1.7801 1.3341-1.0089 0.22418 1.1909-0.60349 1.1961-2.4897 2.6393-4.4013 3.3675-1.4028 0.53443-4.025 0.73282-4.025 0.30454zm-1.7262-2.2411c-2.6697-1.2182-1.0602-5.0779 2.9384-7.0464 1.0913-0.53722 2.3076-0.9083 3.2606-0.99472 1.4331-0.12994 1.5772-0.0876 2.5202 0.74036 0.88899 0.78054 0.98584 0.98521 0.8711 1.8407-0.26588 1.9823-2.1892 3.9754-5.0476 5.2306-1.195 0.52474-3.6266 0.64759-4.5428 0.22951zm75.677-2.2405c-3.1413-0.54995-3.5719-1.0005-3.5719-3.7378 0-2.4924 0.20302-2.7828 2.1234-3.0375 1.6701-0.22155 2.11 0.0768 2.11 1.4311 0 1.1528 0.25625 1.4109 1.7682 1.7807 1.609 0.39352 3.2884-0.0578 4.3709-1.1746 0.8098-0.83551 0.87625-1.0414 0.96469-2.9889l0.095-2.0916-1.7339 0.87238c-1.5488 0.77927-1.9401 0.86569-3.6655 0.80969-2.2611-0.0734-3.6579-0.60012-4.4165-1.6655-1.1537-1.6202-1.3418-2.6404-1.5319-8.3104l-0.1398-4.1691-0.69984-0.1711c-0.87892-0.21489-1.0876-0.52583-1.0927-1.6284-8e-3 -1.7678 0.22483-1.9008 3.33-1.9008 1.5324 0 3.0165 0.12325 3.298 0.27389 0.48311 0.25856 0.51177 0.61336 0.51177 6.3352 0 5.9956 7e-3 6.0693 0.62717 6.7905 1.211 1.4079 3.5921 0.77679 4.5984-1.2187 0.51949-1.0302 0.59531-1.5882 0.59531-4.3812 0-3.404-0.18069-4.0097-1.2578-4.2159-0.98316-0.18828-1.1235-0.38764-1.1235-1.5961 0-1.789 0.35697-1.9877 3.5719-1.9877 2.1783 0 2.8286 0.0883 3.1709 0.43054 0.38512 0.38512 0.42178 1.4528 0.34751 10.12-0.0779 9.089-0.11682 9.7691-0.62799 10.969-0.81347 1.9095-1.8728 3.0737-3.4565 3.7988-1.2197 0.55841-1.8579 0.65747-4.5279 0.70282-1.7094 0.029-3.3462 0.0111-3.6372-0.0398zm-78.714-4.6378c0-0.0481 0.54786-0.48088 1.2175-0.96175 2.1719-1.5598 3.773-4.1688 4.4683-7.2814 0.30019-1.3438 0.72966-0.0904 0.52642 1.5364-0.35152 2.8135-3.6206 6.7943-5.5796 6.7943-0.34791 0-0.63257-0.0393-0.63257-0.0874zm-3.6511-1.772c-0.72112-0.67182-0.94864-1.5522-0.78239-3.0272 0.44349-3.9346 4.7555-7.8948 7.4643-6.8553 1.2588 0.48305 1.5392 3.0878 0.58261 5.4129-0.84848 2.0625-1.856 3.2825-3.4767 4.2097-1.644 0.94059-2.9602 1.0309-3.7879 0.25983zm128.6-0.76659c-2.2314-0.76051-3.3568-1.7047-4.3845-3.6787-1.747-3.3557-1.809-7.6223-0.15868-10.926 0.94758-1.8968 1.9748-2.916 3.88-3.8498 2.0574-1.0084 5.3152-1.0693 7.3404-0.13739 3.2613 1.5008 4.5755 4.1609 4.4695 9.0471-0.11616 5.3536-2.005 8.2431-6.2528 9.5652-1.9246 0.59901-3.091 0.59416-4.894-0.0203zm4.3585-3.8875c1.1274-0.71083 1.4522-1.4579 2.094-4.8164 0.0924-0.48339 0.0215-1.555-0.15746-2.3812-0.17897-0.8263-0.38062-1.7855-0.44813-2.1316-0.0675-0.34607-0.47897-0.98547-0.91439-1.4209-0.73292-0.73293-0.9021-0.7825-2.2802-0.66822-2.615 0.21685-3.4025 1.8571-3.1816 6.6264 0.11465 2.4747 0.21972 2.9822 0.7984 3.8567 1.0055 1.5194 2.5886 1.8815 4.0894 0.93527zm14.225 4.0385c-2.4498-0.8019-3.1257-1.4447-3.9192-3.7272-0.15473-0.44506-0.34824-3.1878-0.43001-6.095l-0.14868-5.2858-0.79375-0.26698c-1.0172-0.34215-1.1816-0.58827-1.1866-1.7763-7e-3 -1.5796 0.43487-1.8054 3.5206-1.8008 1.4812 2e-3 2.8507 0.104 3.0434 0.22616 0.27435 0.17394 0.34409 1.4482 0.32163 5.8767-0.0316 6.2364 0.21799 7.9714 1.2436 8.6434 0.93256 0.61104 2.8359 0.30278 3.7932-0.61432l0.77364-0.74119v-4.8453c0-3.0318-0.099-4.8577-0.26459-4.8784-0.14552-0.0182-0.38364-0.0628-0.52916-0.0992s-0.38365-0.081-0.52917-0.0992-0.26458-0.73471-0.26458-1.5923c0-1.1777 0.10239-1.5985 0.41851-1.7198 0.85731-0.32898 5.5902-0.17495 5.8946 0.19184 0.1931 0.23268 0.3165 2.7213 0.36313 7.3233l0.0706 6.9708 0.79344 0.21208c1.0335 0.27626 1.4555 0.88693 1.4555 2.1064 0 1.5865-0.44202 1.8204-3.4396 1.8204-2.6382 0-3.4396-0.27053-3.4396-1.1612 0-0.20934-0.65173-0.0106-1.7859 0.54452-2.1184 1.0369-3.5195 1.2593-4.9609 0.78744zm35.454 0.0689c-4.0113-0.53547-4.3656-0.84486-4.3656-3.8115 0-2.656 0.33182-3.1886 1.832-2.9405 0.52038 0.0861 1.1545 0.15783 1.4092 0.15943 0.33346 2e-3 0.46302 0.21682 0.46302 0.76736 0 1.2358 0.77563 1.94 2.3608 2.1434 2.3068 0.29593 3.8459-0.89791 3.1025-2.4065-0.24185-0.49077-0.93739-0.84287-3.0862-1.5623-3.4447-1.1532-4.2858-1.6528-5.0391-2.993-0.46083-0.81994-0.59232-1.4661-0.58248-2.8626 0.0185-2.6226 0.80803-3.8754 3.1766-5.0402 1.6326-0.80291 1.9779-0.87367 4.1652-0.85366 1.8737 0.0172 2.7243 0.15895 3.9681 0.66146 1.4881 0.60125 1.5944 0.70314 1.7707 1.698 0.30403 1.7154 0.24656 3.4834-0.12322 3.7903-0.43155 0.35816-3.0656 0.31302-3.294-0.0564-0.0939-0.15198-0.23724-0.68514-0.31845-1.1848-0.12245-0.75329-0.31104-0.96502-1.1042-1.2396-2.3749-0.82222-4.4792 0.90199-3.1551 2.5853 0.40383 0.51338 1.245 0.91336 3.195 1.5192 2.1884 0.67987 2.8474 1.0155 3.8048 1.9375 1.8188 1.7517 2.1949 3.8366 1.1115 6.1632-0.73587 1.5803-1.5433 2.2782-3.4698 2.999-1.8205 0.68115-3.5167 0.83474-5.8212 0.5271zm-135.28-0.55718c-0.17462-0.17463-0.3175-0.8805-0.3175-1.5686 0-1.3968 0.47453-2.0826 1.441-2.0826 0.81444 0 1.0355-0.92676 1.1046-4.6302 0.02984-1.6007 0.12464-3.7438 0.21065-4.7625 0.08601-1.0186 0.18566-3.0723 0.22143-4.5636 0.0613-2.5555 0.03459-2.7118-0.46413-2.716-1.0365-9e-3 -1.222-0.35725-1.1382-2.1372l0.07986-1.6957 3.0427-0.0768c1.6735-0.0422 3.2953-0.014 3.6039 0.0626 0.66617 0.16549 0.83362 0.5418 3.9504 8.8777 1.2786 3.4197 2.3642 6.2673 2.4123 6.328 0.18582 0.23406 0.44149-0.38057 3.1309-7.5267 1.5246-4.0511 2.9221-7.4609 3.1055-7.5773s1.7877-0.21348 3.5653-0.21571c3.6514-5e-3 3.7796 0.0659 3.7796 2.0763 0 1.1955-0.52817 1.8884-1.4395 1.8884-0.49206 0-0.63717 0.18006-0.76124 0.94463-0.0843 0.51955-0.0326 1.262 0.11488 1.65 0.1475 0.38795 0.26155 1.6 0.25346 2.6934-8e-3 1.0934 0.0522 3.0001 0.13404 4.237 0.0818 1.2369 0.19308 3.261 0.24723 4.4979 0.0542 1.2369 0.10514 2.3383 0.11332 2.4474 8e-3 0.10914 0.36356 0.19844 0.78973 0.19844 1.1011 0 1.6064 0.62416 1.6064 1.9844 0 1.8861-0.23583 1.9844-4.7625 1.9844s-4.7625-0.0983-4.7625-1.9844c0-1.2922 0.50029-1.9844 1.4343-1.9844 0.5759 0 0.61059-0.11896 0.77755-2.6667 0.0961-1.4667 0.0861-2.8062-0.0223-2.9766-0.10839-0.17041-0.19891-1.2266-0.20113-2.3471-2e-3 -1.1341-0.13422-2.1675-0.29766-2.3309-0.29408-0.29407-0.49364 0.16524-3.8279 8.8105l-1.101 2.8548-4.0114-0.1534-2.2994-5.9531c-1.2647-3.2742-2.4017-5.8936-2.5267-5.8208-0.20719 0.12061-0.25653 1.1802-0.3149 6.7628-0.01074 1.0274-0.14681 2.2027-0.30236 2.6119-0.35125 0.92386 0.0081 1.4476 0.87908 1.2811 0.92022-0.17592 1.4953 0.55939 1.4953 1.912 0 1.8839-0.23945 1.9844-4.7285 1.9844-2.6782 0-3.9962-0.0993-4.2144-0.3175zm50.665 0.14757c-0.10056-0.10057-0.18285-0.92417-0.18285-1.8302 0-1.7061 0.17552-1.9686 1.3162-1.9686 0.26357 0 0.55149-0.18833 0.63982-0.41852 0.0883-0.23018 0.1606-3.9141 0.1606-8.1865 0-8.2174 0.0131-8.1319-1.2589-8.1876-0.8128-0.0356-1.1133-0.54828-1.1183-1.9078-7e-3 -1.832 0.25147-1.9371 4.7584-1.9371s4.7652 0.1051 4.7584 1.9371c-5e-3 1.4153-0.24966 1.7776-1.3508 2.0022l-0.8941 0.18237-0.075 2.8266c-0.0904 3.4053-0.50661 3.1565 5.1021 3.0493l3.9688-0.0759 0.1496-5.9531h-0.65123c-0.98094 0-1.4828-0.6716-1.4828-1.9844 0-1.9266 0.21264-2.0086 4.9864-1.9248l4.1417 0.0727 0.0799 1.6957c0.085 1.8054-0.0975 2.1292-1.2043 2.1367l-0.59532 4e-3v16.669h0.60855c0.33469 0 0.75141 0.14287 0.92604 0.3175 0.44549 0.44549 0.40864 2.9816-0.0488 3.3613-0.24988 0.20738-1.6588 0.28077-4.4318 0.23084l-4.0654-0.0732-0.0799-1.6957c-0.085-1.8054 0.0975-2.1292 1.2044-2.1367 0.58406-4e-3 0.59531-0.0641 0.59531-3.179v-3.175h-9.2604v3.175c0 3.115 0.0113 3.1751 0.59531 3.179 1.1069 8e-3 1.2894 0.33134 1.2043 2.1367l-0.0799 1.6957-4.1166 0.0726c-2.2641 0.0399-4.1989-0.01-4.2995-0.11024zm64.484-0.19234c-0.0765-0.19925-0.10249-1.0029-0.0578-1.7859 0.0738-1.2935 0.14165-1.4314 0.74263-1.5085 1.223-0.1569 1.3229-0.59407 1.3229-5.7865 0-4.4914-0.0385-4.8828-0.52917-5.3734-0.29104-0.29104-0.82682-0.52917-1.1906-0.52917-0.3638 0-0.67122-0.14882-0.68315-0.33073-0.10665-1.626 0.0108-2.6748 0.3217-2.8718 0.1988-0.12594 1.5138-0.23081 2.9222-0.23304 2.6615-4e-3 3.3923 0.26544 3.3923 1.2516 0 0.35345 0.0992 0.33342 0.59531-0.12024 1.6092-1.4714 4.5113-1.991 6.4924-1.1622 1.1866 0.49639 1.379 0.97495 1.379 3.4301 0 2.4293-0.22353 2.8039-1.8357 3.0762-1.6416 0.27735-2.0779 0.0223-2.2812-1.3335-0.17195-1.1466-0.20163-1.1772-1.1387-1.1714-1.0267 6e-3 -1.9057 0.55804-2.3864 1.4981-0.18236 0.35658-0.29555 2.2485-0.29555 4.9399v4.362l0.7276 0.15778c0.40018 0.0868 1.0165 0.21251 1.3696 0.27941 0.82262 0.15584 1.0687 0.56122 1.0737 1.7688 7e-3 1.713-0.26323 1.8048-5.3148 1.8048-3.5541 0-4.5162-0.0753-4.6263-0.36227zm-154.58-13.192c0.04965-1.3207-0.96556-2.9197-2.7176-4.2803-1.7416-1.3525-4.4698-2.9387-6.5911-3.8322-0.80036-0.33712-1.8124-0.76248-2.249-0.94525-1.3065-0.54695-3.5879-1.154-5.5562-1.4784-1.8729-0.30867-2.5135-0.72272-2.5135-1.6244 0-0.42083 0.2475-0.47823 2.0505-0.47559 1.8612 3e-3 6.3432 0.60934 9.7125 1.3145 3.8431 0.80437 11.925 4.1533 14.186 5.8785 2.0276 1.547 2.4468 1.9896 2.2845 2.4125-0.36333 0.94684-5.1299 3.2866-7.6551 3.7577l-0.98519 0.18379zm-10.264-0.75965c-2.1542-1.1341-4.6128-3.0489-5.8731-4.5741-1.2278-1.4858-2.5607-3.8256-2.3178-4.0686 0.22634-0.22634 3.3243 1.3156 5.4716 2.7233 2.165 1.4194 5.1851 4.358 5.4133 5.2672 0.41708 1.6618-0.40037 1.8596-2.694 0.65214zm21.737-8.8408c-6.295-3.5679-20.17-5.749-28.795-4.5264-2.741 0.38855-2.9055 0.29446-2.7844-1.593 0.08115-1.2646 0.08632-1.271 1.2721-1.5726 8.4822-2.157 23.717-2.2431 31.882-0.18025l1.8521 0.46792 0.07878 1.3547c0.0997 1.7144-1.0889 6.4088-1.7217 6.7999-0.12121 0.0749-0.92428-0.26275-1.7846-0.75035zm-37.038-10.421c-0.21518-0.34818 0.59234-4.3628 1.2092-6.0115 1.5418-4.1209 8.313-7.5833 16.502-8.4382 1.6733-0.17469 8.7667-0.18706 10.794-0.01883 3.3112 0.27475 9.2284 2.1004 11.8 3.6406 3.0916 1.8518 4.2481 3.4385 5.2169 7.1569 0.69531 2.6689 0.73767 3.0683 0.38461 3.6262-0.19765 0.31232-0.40239 0.25393-1.1744-0.33492-0.51427-0.39225-1.4795-0.94657-2.145-1.2318-1.5875-0.68047-5.991-1.8743-7.3777-2.0002-0.6017-0.05461-1.4512-0.16779-1.8878-0.25151-0.79615-0.15268-2.1842-0.25827-6.6146-0.50314-3.1335-0.1732-4.2679-0.17436-7.276-0.0075-4.331 0.24029-5.6597 0.34195-6.6146 0.50605-0.50932 0.08753-1.3058 0.20417-1.77 0.2592-3.091 0.36642-7.6753 1.8759-9.3238 3.0701-1.1304 0.81886-1.4813 0.92856-1.7223 0.53851z" fill="#6e8ca7"/>
   <path d="m46.888 163.7c-6.0327-0.64687-10.432-2.0001-14.053-4.3227-2.6083-1.6731-3.6772-3.4271-4.3058-7.0653-0.21344-1.2354-0.35148-2.2828-0.30676-2.3275 0.04472-0.0447 0.89924 0.36994 1.8989 0.92146 2.8295 1.561 6.751 2.5239 12.731 3.1258 11.351 1.1426 24.069-0.32508 29.002-3.3468 0.70707-0.43314 1.3481-0.72498 1.4246-0.64853 0.23832 0.23832-0.78501 4.7315-1.3311 5.8447-1.1767 2.3985-4.3841 4.631-8.6551 6.0242-4.9168 1.6039-11.483 2.3223-16.404 1.7946zm-4.2333-12.745c-2.0413-0.80971-3.9852-4.0675-4.165-6.9801-0.08282-1.342-0.01-1.9904 0.26441-2.3542 0.34258-0.45418 0.39286-0.31493 0.52708 1.4598 0.21435 2.8342 1.3414 4.9934 3.7429 7.1703 1.0727 0.97238 0.94076 1.2238-0.36939 0.70416zm2.249-1.1309c-1.9187-0.84068-3.9094-3.9591-4.2458-6.6509-0.20452-1.6369-0.05174-2.2315 0.84799-3.3008 0.86959-1.0334 1.9695-1.0452 3.5578-0.0379 3.4648 2.1973 4.911 8.8198 2.1961 10.057-0.83948 0.3825-1.3637 0.36753-2.3561-0.0672zm-18.038-3.1412c-2.9691-3.1594-5.9708-8.6115-7.0992-12.894-0.94378-3.5824-1.2938-7.918-0.94326-11.685 0.63403-6.8132 2.6906-11.875 7.0571-17.369l1.8259-2.2975 0.21087 1.5867c0.85844 6.4594 3.9581 12.338 8.395 15.921 1.8602 1.5021 5.5391 3.5441 7.3384 4.0732 2.1634 0.63618 2.1713 1.5181 0.01971 2.2147-0.77656 0.25141-2.4827 1.0126-3.7913 1.6916-3.0972 1.6069-7.0877 5.4756-8.8109 8.5419-1.4398 2.5621-2.6491 6.1095-3.0094 8.8277-0.15463 1.1666-0.30531 2.1491-0.33485 2.1833-0.02954 0.0342-0.41568-0.32299-0.8581-0.79375zm46.738 0.79771c-0.0042-0.0364-0.05235-0.78052-0.10698-1.6536-0.31864-5.0919-3.6476-11.654-7.6236-15.028-2.418-2.0517-4.6298-3.2845-8.8644-4.9408-1.5456-0.60455-1.1361-1.1738 1.5214-2.1145 4.7404-1.6782 9.5153-5.6912 11.979-10.068 1.0853-1.9278 2.7355-6.4201 2.817-7.6687 0.13017-1.9939 0.27111-3.2495 0.37661-3.355 0.16692-0.16692 2.9113 3.1298 4.0043 4.8102 7.8706 12.101 6.6606 28.472-2.8852 39.038-0.82872 0.9173-1.192 1.2094-1.2185 0.97978zm-19.836-1.4852c0-0.12564 0.72258-0.38177 1.6057-0.56919 2.405-0.51038 5.3497-2.4272 6.5964-4.2938 1.1889-1.7801 1.3341-1.0089 0.22418 1.1909-0.60349 1.1961-2.4897 2.6393-4.4013 3.3675-1.4028 0.53443-4.025 0.73282-4.025 0.30454zm-1.7262-2.2411c-2.6697-1.2182-1.0602-5.0779 2.9384-7.0464 1.0913-0.53722 2.3076-0.9083 3.2606-0.99472 1.4331-0.12994 1.5772-0.0876 2.5202 0.74036 0.88899 0.78054 0.98584 0.98521 0.8711 1.8407-0.26588 1.9823-2.1892 3.9754-5.0476 5.2306-1.195 0.52474-3.6266 0.64759-4.5428 0.22951zm74.609-2.9263c-0.7328-0.17804-1.4769-0.41307-1.6536-0.52228-0.21263-0.13141-0.32128-0.98643-0.32128-2.5282v-2.3297l1.2276-0.16826c1.89-0.25906 1.9474-0.24099 1.9474 0.61305 0 1.1623 0.53281 2.1173 1.3021 2.3339 0.37524 0.10565 1.3969 0.19026 2.2704 0.18802 3.0312-8e-3 4.6296-1.7718 4.6296-5.1096 0-1.0266-0.11695-1.9389-0.2599-2.0272-0.14294-0.0883-0.70636 0.14276-1.252 0.51356-0.54568 0.37079-1.1956 0.67417-1.4443 0.67417-0.24867 0-0.52571 0.11907-0.61565 0.26459-0.0899 0.14552-1.0271 0.26458-2.0826 0.26458-2.3083 0-3.8311-0.63121-4.6132-1.9122-0.72754-1.1917-1.1095-4.0166-1.1095-8.2059 0-3.746-0.12627-4.1694-1.2435-4.1694-0.55386 0-0.60854-0.11887-0.60854-1.3229v-1.3229h6.0854v5.7814c0 3.2788 0.1178 6.1193 0.27214 6.562 0.30222 0.86695 1.4661 1.6796 2.4057 1.6796 0.33649 0 1.1184-0.19346 1.7375-0.42991 1.8135-0.69258 2.1993-1.7952 2.1993-6.2856 0-2.0018-0.12319-3.8682-0.27389-4.1498-0.17625-0.32931-0.55357-0.51177-1.0583-0.51177-0.76494 0-0.78444-0.0329-0.78444-1.3229v-1.3229h6.1146l-0.0807 9.988c-0.0781 9.6578-0.10008 10.03-0.66552 11.255-1.3589 2.9433-3.3006 3.9045-7.8186 3.8703-1.6355-0.0124-3.5733-0.16817-4.3061-0.34622zm-77.646-3.952c0-0.0481 0.54786-0.48088 1.2175-0.96175 2.1719-1.5598 3.773-4.1688 4.4683-7.2814 0.30019-1.3438 0.72966-0.0904 0.52642 1.5364-0.35152 2.8135-3.6206 6.7943-5.5796 6.7943-0.34791 0-0.63257-0.0393-0.63257-0.0874zm-3.6511-1.772c-0.72112-0.67182-0.94864-1.5522-0.78239-3.0272 0.44349-3.9346 4.7555-7.8948 7.4643-6.8553 1.2588 0.48305 1.5392 3.0878 0.58261 5.4129-0.84848 2.0625-1.856 3.2825-3.4767 4.2097-1.644 0.94059-2.9602 1.0309-3.7879 0.25983zm128.55-1.2064c-2.8785-0.90304-4.4506-3.0538-5.0615-6.9246-0.28033-1.7762-0.28209-2.519-9e-3 -3.9688 0.8972-4.7704 3.232-7.0706 7.5051-7.3938 2.577-0.1949 4.4426 0.34999 5.9501 1.7378 1.712 1.5762 2.2678 3.0661 2.3949 6.4198 0.16775 4.4278-0.91325 7.3494-3.3235 8.9824-2.1946 1.4869-4.9977 1.9182-7.4556 1.1471zm4.5-3.092c1.4525-0.97883 2.0296-2.0828 2.2351-4.2754 0.33542-3.5794-0.31001-6.273-1.7993-7.509-0.62139-0.5157-2.0694-0.66343-3.2876-0.3354-0.8872 0.2389-1.233 0.52917-1.8425 1.5468-0.71726 1.1974-0.75036 1.3986-0.75036 4.56 0 3.0364 0.0543 3.4048 0.66288 4.4979 1.1192 2.0102 3.1107 2.6412 4.7818 1.5151zm13.513 2.9837c-1.8823-0.67716-2.0292-0.82663-2.6669-2.715-0.47884-1.4179-0.54771-2.263-0.54771-6.7206 0-4.7701-0.033-5.1163-0.51177-5.3726-0.28148-0.15064-0.75773-0.27389-1.0583-0.27389-0.47948 0-0.54656-0.16236-0.54656-1.3229v-1.3229h6.0854l0.0149 6.1516c0.017 7.0058 0.15361 7.7388 1.5851 8.5058 1.2778 0.68465 2.6184 0.41043 3.972-0.81249l1.0426-0.94187v-4.8111c0-5.0919-0.0809-5.4461-1.2435-5.4461-0.55439 0-0.60854-0.11849-0.60854-1.3316v-1.3316l5.8903 0.1496-0.0505 6.7031c-0.0556 7.3755 0.035 7.8613 1.4966 8.0293 0.68553 0.0788 0.7386 0.1749 0.81335 1.4733l0.08 1.3891h-2.9242c-2.924 0-2.9242-6e-5 -2.9242-0.64584 0-0.9554-0.37839-1.028-1.4758-0.2833-1.0799 0.73283-3.2628 1.4637-4.3269 1.4488-0.37377-5e-3 -1.3166-0.23871-2.0952-0.51879zm35.811 0.2417c-1.0186-0.13757-2.2434-0.37814-2.7216-0.5346l-0.86951-0.28448 0.0758-2.4237 0.0758-2.4237h1.3184c1.3041 0 1.3201 0.0101 1.4704 0.93503 0.0836 0.51427 0.23874 1.0754 0.34478 1.247 0.24923 0.40325 1.8934 0.85734 3.1111 0.85922 1.1808 2e-3 2.7191-0.98451 2.8392-1.8205 0.23788-1.656-0.42318-2.1809-4.0346-3.2038-3.6634-1.0376-5.1206-2.8011-4.8431-5.8612 0.19208-2.1183 0.92574-3.2029 2.784-4.1154 1.3618-0.66876 1.7636-0.73793 4.1535-0.71516 1.9348 0.0184 3.0014 0.16266 3.9688 0.53668l1.3229 0.51148 0.0768 2.1753 0.0769 2.1753h-2.9318v-0.88503c0-1.1718-0.67612-1.7405-2.2977-1.9325-1.6135-0.19111-2.778 0.33443-3.2464 1.4651-0.2777 0.67045-0.25658 0.90818 0.14043 1.5803 0.50933 0.86223 1.4156 1.3354 4.1357 2.1594 3.2648 0.98896 4.6586 2.5619 4.6926 5.2958 0.0494 3.9749-3.7618 6.0537-9.6424 5.2595zm-134.81-1.6977c0-1.4268 0.0149-1.4552 0.76136-1.4552 1.2962 0 1.7039-1.0535 1.6387-4.2333-0.02241-1.0914 0.07691-3.3536 0.22072-5.0271 0.1438-1.6735 0.29254-4.2333 0.33054-5.6885l0.06909-2.6458-1.962-0.1642v-2.8785h6.8411l0.52002 1.3891c0.28601 0.76398 1.4934 4.0084 2.6832 7.2099 2.5294 6.8063 2.4404 6.6146 3.0698 6.6146 0.34436 0 0.58109-0.31914 0.80154-1.0805 0.17206-0.59429 0.50472-1.4516 0.73923-1.9051 0.23452-0.45351 0.4264-0.99453 0.4264-1.2023 0-0.20773 0.19882-0.83872 0.44181-1.4022 0.243-0.56347 0.70794-1.7389 1.0332-2.612 0.32526-0.87312 0.85026-2.2423 1.1667-3.0427 0.31641-0.80036 0.69728-1.8719 0.8464-2.3812 0.45766-1.5632 0.52016-1.5875 4.085-1.5875h3.2749v1.4552c0 1.4268-0.0149 1.4552-0.76136 1.4552-1.3985 0-1.4036 0.049-0.92816 8.8977 0.24136 4.4924 0.55623 8.3168 0.6997 8.4987 0.14348 0.1819 0.663 0.33072 1.1545 0.33072h0.89364v2.9239l-8.3344-0.1458v-1.3229c0-1.2988 0.0156-1.3244 0.85904-1.4058 1.166-0.11245 1.2412-0.54379 1.0184-5.8445-0.2042-4.8604-0.40774-6.2435-0.91881-6.2435-0.20262 0-1.2877 2.4622-2.6561 6.0272-1.2724 3.3149-2.4355 6.1491-2.5846 6.2982s-0.97186 0.23483-1.8284 0.19056c-1.3155-0.068-1.5721-0.16269-1.6522-0.60967-0.0887-0.49497-0.25931-0.93217-1.2132-3.1088-0.20726-0.47294-0.63245-1.5743-0.94487-2.4474-0.31242-0.87312-0.67972-1.8256-0.81623-2.1167-0.1365-0.29105-0.45987-1.138-0.7186-1.882-0.58536-1.6834-1.1962-2.6265-1.5568-2.4036-0.16093 0.0995-0.36717 2.182-0.49576 5.0061-0.34816 7.6462-0.42984 6.93 0.80801 7.0847l1.0583 0.1323 0.16 2.7781h-8.2297zm50.588 0.0662c0.0787-1.3667 0.0949-1.3912 1.006-1.5214l0.92604-0.13229v-17.462l-1.9844-0.1642v-2.8785h8.4943l-0.08 1.3891c-0.0745 1.2941-0.1295 1.3948-0.80469 1.4725-1.2084 0.13913-1.5242 0.91812-1.5242 3.759 0 1.6182 0.11476 2.6488 0.3175 2.8516 0.22302 0.22301 1.7106 0.3175 4.9988 0.3175 4.0246 0 4.7038-0.0587 4.8419-0.41852 0.228-0.59415 0.192-5.7371-0.0427-6.106-0.10739-0.16877-0.55205-0.34736-0.98814-0.39687-0.76308-0.0866-0.79289-0.13977-0.79289-1.4129v-1.3229l8.3625-0.1458-0.0802 1.3959c-0.0725 1.262-0.14365 1.4046-0.74167 1.4874-1.338 0.18509-1.3232 0.0851-1.3189 8.8706 2e-3 4.5297 0.0919 8.3739 0.1993 8.5427 0.10738 0.16877 0.55204 0.34737 0.98813 0.39688 0.76308 0.0866 0.79289 0.13976 0.79289 1.4129v1.3229l-8.3344 0.1458v-1.4619c0-1.4248 0.0188-1.4619 0.74083-1.4619 0.40746 0 0.88371-0.14287 1.0583-0.3175 0.43786-0.43785 0.43786-6.3355 0-6.7733-0.22242-0.22242-1.6854-0.3175-4.8855-0.3175-4.2454 0-4.5873 0.0361-4.8419 0.51177-0.39828 0.74418-0.35271 5.8995 0.0568 6.4304 0.1819 0.2358 0.62839 0.46692 0.99219 0.51359 0.59854 0.0768 0.66907 0.217 0.74143 1.4739l0.08 1.3891h-8.2574zm64.757 1.3293c-7e-3 -0.0399-0.0419-0.63809-0.0768-1.3293-0.0568-1.1267-5e-3 -1.2568 0.50155-1.2568 0.31072 0 0.76199-0.21774 1.0028-0.48386 0.37675-0.4163 0.43788-1.2232 0.43788-5.7798 0-5.7763-0.0585-6.0051-1.5875-6.2138-0.58614-0.08-0.67064-0.23337-0.7421-1.347l-0.0806-1.2568h2.9249c2.6849 0 2.9249 0.0408 2.9249 0.49677 0 0.27322 0.18481 0.65014 0.41068 0.8376 0.34704 0.28802 0.52656 0.21395 1.1585-0.47792 0.91583-1.0027 2.5808-1.4931 4.4274-1.3039 2.3824 0.24404 2.4701 0.35774 2.4701 3.2018v2.4712l-0.82682 0.16536c-0.45476 0.0909-1.1691 0.16537-1.5875 0.16537-0.7044 0-0.76068-0.0744-0.76068-1.0054 0-1.2164-0.37321-1.6407-1.442-1.6394-1.1257 1e-3 -2.356 0.82452-2.8787 1.926-0.5661 1.193-0.65833 9.2081-0.11111 9.656 0.1819 0.14887 0.86651 0.37557 1.5214 0.50378l1.1906 0.23311v2.3645l-4.4318 0.0725c-2.4375 0.0399-4.4378 0.0399-4.4452 0zm-154.98-12.966c0.04965-1.3207-0.96556-2.9197-2.7176-4.2803-1.7416-1.3525-4.4698-2.9387-6.5911-3.8322-0.80036-0.33712-1.8124-0.76248-2.249-0.94525-1.3065-0.54695-3.5879-1.154-5.5562-1.4784-1.8729-0.30867-2.5135-0.72272-2.5135-1.6244 0-0.42083 0.2475-0.47823 2.0505-0.47559 1.8612 3e-3 6.3432 0.60934 9.7125 1.3145 3.8431 0.80437 11.925 4.1533 14.186 5.8785 2.0276 1.547 2.4468 1.9896 2.2845 2.4125-0.36333 0.94684-5.1299 3.2866-7.6551 3.7577l-0.98519 0.18379zm-10.264-0.75965c-2.1542-1.1341-4.6128-3.0489-5.8731-4.5741-1.2278-1.4858-2.5607-3.8256-2.3178-4.0686 0.22634-0.22634 3.3243 1.3156 5.4716 2.7233 2.165 1.4194 5.1851 4.358 5.4133 5.2672 0.41708 1.6618-0.40037 1.8596-2.694 0.65214zm21.737-8.8408c-6.295-3.5679-20.17-5.749-28.795-4.5264-2.741 0.38855-2.9055 0.29446-2.7844-1.593 0.08115-1.2646 0.08632-1.271 1.2721-1.5726 8.4822-2.157 23.717-2.2431 31.882-0.18025l1.8521 0.46792 0.07878 1.3547c0.0997 1.7144-1.0889 6.4088-1.7217 6.7999-0.12121 0.0749-0.92428-0.26275-1.7846-0.75035zm-36.491-11.836c0.38572-2.5269 1.1866-5.0627 1.9093-6.0455 1.1928-1.622 3.6257-3.2951 6.4054-4.4051 6.7454-2.6935 15.807-3.2083 23.931-1.3595 1.3097 0.29802 2.7384 0.70787 3.175 0.91076 0.43656 0.20289 1.3295 0.55522 1.9844 0.78296 1.6059 0.55848 4.6008 2.5975 5.4495 3.7102 0.76842 1.0074 1.8002 4.0852 2.0948 6.2485 0.18606 1.3664 0.17579 1.3998-0.30241 0.98228-1.5893-1.3876-5.9956-2.8621-10.549-3.53-10.901-1.5989-25.227-0.60372-31.158 2.1643-1.1298 0.52728-2.1862 1.1177-2.3475 1.3121-0.54171 0.65272-0.76522 0.36176-0.59231-0.77104z" fill="#49749b"/>
   <path d="m46.754 163.4c-4.4163-0.33746-8.6282-1.4445-12.064-3.171-1.8471-0.92808-4.2585-3.1033-4.8708-4.3936-0.53627-1.1301-1.1637-3.6016-1.1773-4.6378l-0.0094-0.71457 1.9182 0.90601c9.4107 4.4448 32.866 4.2936 41.126-0.26501 0.60948-0.33636 1.1598-0.55986 1.223-0.49667 0.2058 0.2058-0.63815 4.1409-1.0665 4.9728-0.76817 1.4918-1.71 2.5183-3.2609 3.554-4.9605 3.3125-13.158 4.9077-21.818 4.246zm-4.0989-12.445c-2.0413-0.80971-3.9852-4.0675-4.165-6.9801-0.08282-1.342-0.01-1.9904 0.26441-2.3542 0.34258-0.45418 0.39286-0.31493 0.52708 1.4598 0.21435 2.8342 1.3414 4.9934 3.7429 7.1703 1.0727 0.97238 0.94076 1.2238-0.36939 0.70416zm2.249-1.1309c-1.9187-0.84068-3.9094-3.9591-4.2458-6.6509-0.20452-1.6369-0.05174-2.2315 0.84799-3.3008 0.86959-1.0334 1.9695-1.0452 3.5578-0.0379 3.4648 2.1973 4.911 8.8198 2.1961 10.057-0.83948 0.3825-1.3637 0.36753-2.3561-0.0672zm-18.341-3.7398c-2.84-3.2289-5.7057-8.6853-6.7923-12.933-1.1827-4.6233-1.3228-9.7622-0.39636-14.546 0.76555-3.9531 3.2299-9.3442 5.7228-12.519 0.77688-0.98944 1.6221-2.1256 1.8782-2.5249 0.25615-0.39927 0.54115-0.72669 0.63334-0.72761 0.09219-9.2e-4 0.2505 0.802 0.35181 1.7843 0.69332 6.7223 4.1745 12.755 9.4628 16.399 2.2231 1.5318 4.0028 2.4584 5.9386 3.092 0.75278 0.24638 1.5085 0.61643 1.6794 0.82234 0.33359 0.40194 0.2295 0.46338-2.9158 1.721-4.9953 1.9974-9.5573 6.2331-12.106 11.24-0.82811 1.6268-1.6728 4.6507-2.0095 7.194l-0.30409 2.2967zm47.048 0.12843c0-1.6862-0.76356-4.9683-1.656-7.1183-2.5595-6.166-7.803-11.015-14.167-13.1-1.9221-0.6299-1.7555-1.1252 0.68109-2.0246 8.3155-3.0695 14.349-10.712 15.045-19.059 0.09535-1.1434 0.24555-2.0734 0.33377-2.0667 0.32823 0.0249 3.3725 4.1226 4.4021 5.9253 2.0263 3.5479 2.9202 5.7769 3.8789 9.673 0.44464 1.8069 0.55568 3.107 0.56498 6.6146 0.01035 3.9015-0.0647 4.665-0.70575 7.1809-1.1128 4.3674-2.6135 7.7648-4.8753 11.037-1.2242 1.7712-3.1035 4.0067-3.3684 4.0067-0.07314 0-0.13298-0.48127-0.13298-1.0695zm-19.844-0.21727c0-0.12564 0.72258-0.38177 1.6057-0.56919 2.405-0.51038 5.3497-2.4272 6.5964-4.2938 1.1889-1.7801 1.3341-1.0089 0.22418 1.1909-0.60349 1.1961-2.4897 2.6393-4.4013 3.3675-1.4028 0.53443-4.025 0.73282-4.025 0.30454zm-1.7262-2.2411c-2.6697-1.2182-1.0602-5.0779 2.9384-7.0464 1.0913-0.53722 2.3076-0.9083 3.2606-0.99472 1.4331-0.12994 1.5772-0.0876 2.5202 0.74036 0.88899 0.78054 0.98584 0.98521 0.8711 1.8407-0.26588 1.9823-2.1892 3.9754-5.0476 5.2306-1.195 0.52474-3.6266 0.64759-4.5428 0.22951zm74.718-3.207c-0.67334-0.18564-1.358-0.42014-1.5214-0.52113-0.33177-0.20504-0.42102-4.0144-0.0987-4.2108 0.10914-0.0665 0.67279-0.16283 1.2525-0.21405 1.0502-0.0928 1.055-0.0889 1.2989 1.0529 0.30004 1.4046 0.88354 1.8216 2.8768 2.0559 2.6837 0.31542 4.8341-0.97158 5.4742-3.2762 0.1503-0.54118 0.27394-1.7914 0.27475-2.7782 2e-3 -2.1775-0.33426-2.425-1.7711-1.3044-1.3064 1.0189-2.4448 1.3788-4.3608 1.3788-2.5237 0-3.9917-0.90752-4.7077-2.9104-0.19929-0.55748-0.37358-2.8215-0.43791-5.6885-0.0588-2.6194-0.15638-4.9001-0.2169-5.0683-0.0605-0.16818-0.47526-0.386-0.92165-0.48404-0.73746-0.16198-0.81163-0.27306-0.81163-1.2156v-1.0373h5.5562l5.3e-4 5.7547c2.6e-4 4.9501 0.0651 5.8836 0.46302 6.677 0.81609 1.6271 2.4655 2.0136 4.4642 1.0461 1.844-0.89275 2.216-1.9921 2.216-6.5499 0-3.4002-0.0497-3.8027-0.52917-4.2821-0.29104-0.29104-0.76729-0.52916-1.0583-0.52916-0.44097 0-0.52917-0.17639-0.52917-1.0583v-1.0583h5.5562v9.3447c0 10.989-0.0754 11.472-2.0972 13.433-0.8653 0.83916-1.6287 1.3089-2.4726 1.5214-1.5894 0.40023-6.3354 0.35371-7.8993-0.0774zm-77.754-3.6714c0-0.0481 0.54786-0.48088 1.2175-0.96175 2.1719-1.5598 3.773-4.1688 4.4683-7.2814 0.30019-1.3438 0.72966-0.0904 0.52642 1.5364-0.35152 2.8135-3.6206 6.7943-5.5796 6.7943-0.34791 0-0.63257-0.0393-0.63257-0.0874zm-3.6511-1.772c-0.72112-0.67182-0.94864-1.5522-0.78239-3.0272 0.44349-3.9346 4.7555-7.8948 7.4643-6.8553 1.2588 0.48305 1.5392 3.0878 0.58261 5.4129-0.84848 2.0625-1.856 3.2825-3.4767 4.2097-1.644 0.94059-2.9602 1.0309-3.7879 0.25983zm128.88-1.4142c-2.696-0.68393-4.2783-2.5889-5.0038-6.024-0.7167-3.3934-0.01-7.1384 1.7506-9.2725 0.44249-0.53645 1.4867-1.3104 2.3205-1.7198 1.3275-0.65188 1.812-0.74336 3.8972-0.73582 2.7717 0.01 3.9299 0.47498 5.4932 2.2054 1.2626 1.3975 1.7828 3.2221 1.7828 6.2526 0 4.7252-1.5592 7.6192-4.8445 8.9919-1.3833 0.57797-3.7799 0.71219-5.396 0.3022zm4.6614-2.74c0.3764-0.27289 0.98202-1.0853 1.3458-1.8053 0.59259-1.1728 0.66092-1.626 0.65631-4.3519-5e-3 -2.7173-0.0758-3.1811-0.66604-4.3367-0.84528-1.655-2.0243-2.3522-3.7268-2.204-2.807 0.24441-3.8082 2.0388-3.7969 6.8052 8e-3 3.202 0.37825 4.4822 1.6237 5.6085 1.2148 1.0986 3.2644 1.2262 4.5639 0.28414zm49.103 2.801c-1.0186-0.12902-2.2437-0.36269-2.7223-0.51929l-0.87021-0.2847 0.153-4.3178 1.1245-0.0814c1.0776-0.078 1.1245-0.0501 1.1245 0.66873 0 1.0679 0.65406 1.8625 1.7937 2.179 3.051 0.84735 5.4685-0.55232 4.9592-2.8712-0.22711-1.034-1.2724-1.6662-3.9748-2.4042-3.6723-1.0028-4.8948-2.2595-4.8948-5.0315 0-2.3177 1.0704-3.8049 3.4396-4.7787 1.333-0.54791 5.0556-0.47896 6.9453 0.12865l1.5214 0.48918v3.8963h-1.1906c-1.1018 0-1.1906-0.0507-1.1906-0.67885 0-1.0121-0.42018-1.6126-1.3568-1.9392-1.3408-0.46739-2.7095-0.35206-3.6973 0.31154-0.73711 0.49518-0.91322 0.79557-0.97785 1.668-0.12367 1.6694 0.59034 2.3489 3.3364 3.1754 3.0285 0.91148 4.6393 1.9371 5.1852 3.3016 0.84293 2.1067 0.38919 4.2776-1.1736 5.6153-1.6754 1.4341-4.0996 1.9081-7.5338 1.4732zm-36.643-0.42583c-0.56735-0.28386-1.1808-0.92267-1.5875-1.6532-0.63491-1.1404-0.66846-1.4288-0.79517-6.835-0.1218-5.1969-0.17301-5.6741-0.64588-6.0193-0.28247-0.20619-0.72896-0.37489-0.99219-0.37489-0.38197 0-0.47859-0.21367-0.47859-1.0583v-1.0583h5.5222l0.0857 6.4162c0.0932 6.9751 0.20845 7.5818 1.5742 8.2881 0.98412 0.50891 1.9893 0.46587 3.3296-0.14256 1.987-0.90201 2.1861-1.5334 2.1873-6.936 1e-3 -4.9779-0.1282-5.509-1.3408-5.509-0.41892 0-0.51027-0.18946-0.51027-1.0583v-1.0583h5.2917v6.8203c0 7.5022 0.0547 7.7824 1.578 8.0871 0.73495 0.14699 0.80324 0.2512 0.80324 1.2256v1.065h-4.9682l-0.17373-0.92604c-0.2071-1.1039-0.47455-1.1447-1.6462-0.25104-0.48674 0.37125-1.2978 0.8475-1.8024 1.0583-1.2932 0.54032-4.2789 0.49628-5.4309-0.0801zm-98.111-0.90287c0.07389-1.0094 0.16329-1.1374 0.93284-1.3356 1.13-0.29095 1.3009-1.0297 1.5171-6.5586 0.09391-2.4011 0.21439-4.7228 0.26774-5.1594s0.12883-1.964 0.16774-3.3942c0.07555-2.7769-0.04816-3.0756-1.2774-3.084-0.61926-4e-3 -1-0.82708-0.8186-1.7691 0.08433-0.43788 0.40584-0.48395 3.3774-0.48395h3.2842l2.9046 7.7391c2.2748 6.0611 3.0044 7.7391 3.3646 7.7391 0.25301 0 0.54182-0.20835 0.6418-0.46302 0.1-0.25466 1.3533-3.5586 2.7852-7.3422 1.4319-3.7836 2.6866-7.0911 2.7883-7.3501 0.16536-0.42137 0.52217-0.46313 3.3914-0.39688 2.8633 0.0661 3.2165 0.12585 3.2994 0.55799 0.18469 0.96317-0.1988 1.765-0.84413 1.765-0.33848 0-0.82081 0.22695-1.0718 0.50434-0.42225 0.46657-0.43371 0.9075-0.15306 5.887 0.70102 12.438 0.5925 11.852 2.1963 11.861 0.70975 4e-3 0.73919 0.0541 0.66146 1.1285l-0.0814 1.1245-7.5718 0.147 0.0817-1.1296c0.0641-0.8854 0.1961-1.1505 0.61089-1.2264 1.2472-0.22839 1.2756-0.37567 1.0912-5.6521-0.17593-5.0324-0.39266-7.4777-0.64076-7.2296-0.0754 0.0754-0.29552 6e-3 -0.48909-0.15494-0.26803-0.22244-0.39473-0.17458-0.53139 0.20073-0.18913 0.51941-4.5469 11.888-4.7826 12.477-0.0952 0.23777-0.59257 0.31891-1.6219 0.26458l-1.4846-0.0784-2.4808-6.3965c-2.0466-5.2769-2.5566-6.3681-2.9141-6.2343-0.37646 0.14085-0.38568 0.10353-0.07024-0.28427 0.31285-0.38461 0.30369-0.44641-0.06615-0.44641-0.2361 0-0.43249 0.0298-0.43642 0.0661-0.0039 0.0364-0.17782 2.851-0.38641 6.2547-0.25543 4.168-0.29325 6.3492-0.11583 6.6807 0.18029 0.33688 0.55754 0.49222 1.1954 0.49222h0.93196l-0.1628 2.249-7.5718 0.147zm50.319 0.39931c-0.2244-0.89406 0.13766-1.4655 1.0899-1.7201 0.41303-0.11046 0.84858-0.35472 0.9679-0.54279 0.11931-0.18807 0.21876-4.1076 0.22099-8.7101 4e-3 -8.9272 0.0204-8.8176-1.3189-9.0029-0.57158-0.0791-0.67251-0.24429-0.74282-1.216l-0.0814-1.1245h7.9984l-0.0814 1.1232c-0.0735 1.0149-0.15724 1.1362-0.86798 1.2581-1.1366 0.19495-1.4539 1.0479-1.4584 3.9199-6e-3 3.7033-0.33718 3.4883 5.3764 3.4883 3.4059 0 4.9263-0.0937 5.1501-0.3175 0.21045-0.21045 0.3175-1.3523 0.3175-3.3867 0-3.2572-0.15006-3.7042-1.2435-3.7042-0.54485 0-0.60855-0.12462-0.60855-1.1906v-1.1906h7.7034l-0.0814 1.1091c-0.0731 0.99619-0.16629 1.1309-0.9157 1.3239-0.5894 0.15173-0.91384 0.44283-1.1051 0.99153-0.37199 1.0671-0.0719 16.598 0.32708 16.925 0.1592 0.13056 0.5859 0.27856 0.94822 0.32888 0.71413 0.0992 0.94192 0.66651 0.68255 1.6999l-0.16076 0.64053h-7.6933l0.0814-1.1091c0.0736-1.0028 0.16342-1.1302 0.9379-1.3296 1.0903-0.28073 1.1678-0.61111 1.0722-4.5728l-0.0766-3.175-5.0262-0.0722c-4.4927-0.0646-5.0614-0.0241-5.3578 0.38129-0.4112 0.56237-0.4581 6.2363-0.0577 6.9844 0.17624 0.32932 0.55357 0.51178 1.0583 0.51178 0.75331 0 0.78444 0.0472 0.78444 1.1906v1.1906h-7.6628zm64.908 0.53264c-0.10065-0.10066-0.183-0.57988-0.183-1.065 0-0.70555 0.10583-0.88194 0.52916-0.88194 0.29104 0 0.76729-0.23812 1.0583-0.52917 0.494-0.494 0.52916-0.88194 0.52916-5.8382 0-3.0759-0.11264-5.5195-0.26779-5.8094-0.1473-0.27521-0.68308-0.57829-1.1906-0.67351-0.86616-0.16249-0.92283-0.2363-0.92283-1.202v-1.0289h5.2917v0.91043c0 0.50073 0.1217 0.98564 0.27045 1.0776 0.14875 0.0919 0.86884-0.37085 1.6002-1.0284 1.4525-1.3059 2.8308-1.708 4.6712-1.3628 1.8596 0.34887 1.9249 0.44702 1.9249 2.8952 0 2.4181-0.079 2.5224-1.9182 2.5315-0.64946 3e-3 -0.72761-0.0914-0.72761-0.88142 0-1.7202-1.7511-2.3063-3.4666-1.1602-1.608 1.0742-1.8247 1.8846-1.8206 6.8077 2e-3 2.4011 0.0911 4.5028 0.19802 4.6704 0.10692 0.16763 0.76626 0.39046 1.4652 0.49517 1.2696 0.1902 1.2708 0.19129 1.1906 1.1504l-0.0802 0.96004-3.9842 0.0728c-2.1913 0.04-4.0665-0.01-4.1672-0.11024zm-155.18-12.591c0.04965-1.3207-0.96556-2.9197-2.7176-4.2803-1.7416-1.3525-4.4698-2.9387-6.5911-3.8322-0.80036-0.33712-1.8124-0.76248-2.249-0.94525-1.3065-0.54695-3.5879-1.154-5.5562-1.4784-1.8729-0.30867-2.5135-0.72272-2.5135-1.6244 0-0.42083 0.2475-0.47823 2.0505-0.47559 1.8612 3e-3 6.3432 0.60934 9.7125 1.3145 3.8431 0.80437 11.925 4.1533 14.186 5.8785 2.0276 1.547 2.4468 1.9896 2.2845 2.4125-0.36333 0.94684-5.1299 3.2866-7.6551 3.7577l-0.98519 0.18379zm-10.264-0.75965c-2.1542-1.1341-4.6128-3.0489-5.8731-4.5741-1.2278-1.4858-2.5607-3.8256-2.3178-4.0686 0.22634-0.22634 3.3243 1.3156 5.4716 2.7233 2.165 1.4194 5.1851 4.358 5.4133 5.2672 0.41708 1.6618-0.40037 1.8596-2.694 0.65214zm170.55-2.1055c0-0.15411 0.11907-0.20662 0.26459-0.11668 0.14552 0.0899 0.26458 0.21603 0.26458 0.2802 0 0.0642-0.11906 0.11667-0.26458 0.11667s-0.26459-0.12609-0.26459-0.28019zm-148.82-6.7354c-6.295-3.5679-20.17-5.749-28.795-4.5264-2.741 0.38855-2.9055 0.29446-2.7844-1.593 0.08115-1.2646 0.08632-1.271 1.2721-1.5726 8.4822-2.157 23.717-2.2431 31.882-0.18025l1.8521 0.46792 0.07878 1.3547c0.0997 1.7144-1.0889 6.4088-1.7217 6.7999-0.12121 0.0749-0.92428-0.26275-1.7846-0.75035zm-36.128-12.195c0-1.1637 0.79759-3.8798 1.4889-5.0702 4.2746-7.3608 24.998-9.6881 36.338-4.0808 2.7103 1.3402 5.0296 3.6363 5.6639 5.6071 0.25759 0.80036 0.53715 2.0918 0.62124 2.8699l0.15289 1.4147-1.1591-0.59131c-4.4795-2.2853-11.489-3.441-20.892-3.4443-9.2269-0.0033-16.135 1.0839-20.455 3.219-0.85168 0.42096-1.5958 0.76539-1.6536 0.76539-0.05783 0-0.10514-0.31024-0.10514-0.68941z" fill="#3774ac"/>
   <path d="m42.655 150.96c-2.0413-0.80971-3.9852-4.0675-4.165-6.9801-0.08282-1.342-0.01-1.9904 0.26441-2.3542 0.34258-0.45418 0.39286-0.31493 0.52708 1.4598 0.21435 2.8342 1.3414 4.9934 3.7429 7.1703 1.0727 0.97238 0.94076 1.2238-0.36939 0.70416zm2.249-1.1309c-1.9187-0.84068-3.9094-3.9591-4.2458-6.6509-0.20452-1.6369-0.05174-2.2315 0.84799-3.3008 0.86959-1.0334 1.9695-1.0452 3.5578-0.0379 3.4648 2.1973 4.911 8.8198 2.1961 10.057-0.83948 0.3825-1.3637 0.36753-2.3561-0.0672zm-18.341-3.7398c-2.84-3.2289-5.7057-8.6853-6.7923-12.933-1.1827-4.6233-1.3228-9.7622-0.39636-14.546 0.76555-3.9531 3.2299-9.3442 5.7228-12.519 0.77688-0.98944 1.6221-2.1256 1.8782-2.5249 0.25615-0.39927 0.54115-0.72669 0.63334-0.72761 0.09219-9.2e-4 0.2505 0.802 0.35181 1.7843 0.69332 6.7223 4.1745 12.755 9.4628 16.399 2.2231 1.5318 4.0028 2.4584 5.9386 3.092 0.75278 0.24638 1.5085 0.61643 1.6794 0.82234 0.33359 0.40194 0.2295 0.46338-2.9158 1.721-4.9953 1.9974-9.5573 6.2331-12.106 11.24-0.82811 1.6268-1.6728 4.6507-2.0095 7.194l-0.30409 2.2967zm47.048 0.12843c0-1.6862-0.76356-4.9683-1.656-7.1183-2.5595-6.166-7.803-11.015-14.167-13.1-1.9221-0.6299-1.7555-1.1252 0.68109-2.0246 8.3155-3.0695 14.349-10.712 15.045-19.059 0.09535-1.1434 0.24555-2.0734 0.33377-2.0667 0.32823 0.0249 3.3725 4.1226 4.4021 5.9253 2.0263 3.5479 2.9202 5.7769 3.8789 9.673 0.44464 1.8069 0.55568 3.107 0.56498 6.6146 0.01035 3.9015-0.0647 4.665-0.70575 7.1809-1.1128 4.3674-2.6135 7.7648-4.8753 11.037-1.2242 1.7712-3.1035 4.0067-3.3684 4.0067-0.07314 0-0.13298-0.48127-0.13298-1.0695zm-19.844-0.21727c0-0.12564 0.72258-0.38177 1.6057-0.56919 2.405-0.51038 5.3497-2.4272 6.5964-4.2938 1.1889-1.7801 1.3341-1.0089 0.22418 1.1909-0.60349 1.1961-2.4897 2.6393-4.4013 3.3675-1.4028 0.53443-4.025 0.73282-4.025 0.30454zm-1.7262-2.2411c-2.6697-1.2182-1.0602-5.0779 2.9384-7.0464 1.0913-0.53722 2.3076-0.9083 3.2606-0.99472 1.4331-0.12994 1.5772-0.0876 2.5202 0.74036 0.88899 0.78054 0.98584 0.98521 0.8711 1.8407-0.26588 1.9823-2.1892 3.9754-5.0476 5.2306-1.195 0.52474-3.6266 0.64759-4.5428 0.22951zm-3.0363-6.8783c0-0.0481 0.54786-0.48088 1.2175-0.96175 2.1719-1.5598 3.773-4.1688 4.4683-7.2814 0.30019-1.3438 0.72966-0.0904 0.52642 1.5364-0.35152 2.8135-3.6206 6.7943-5.5796 6.7943-0.34791 0-0.63257-0.0393-0.63257-0.0874zm-3.6511-1.772c-0.72112-0.67182-0.94864-1.5522-0.78239-3.0272 0.44349-3.9346 4.7555-7.8948 7.4643-6.8553 1.2588 0.48305 1.5392 3.0878 0.58261 5.4129-0.84848 2.0625-1.856 3.2825-3.4767 4.2097-1.644 0.94059-2.9602 1.0309-3.7879 0.25983zm7.9327-14.341c0.04965-1.3207-0.96556-2.9197-2.7176-4.2803-1.7416-1.3525-4.4698-2.9387-6.5911-3.8322-0.80036-0.33712-1.8124-0.76248-2.249-0.94525-1.3065-0.54695-3.5879-1.154-5.5562-1.4784-1.8729-0.30867-2.5135-0.72272-2.5135-1.6244 0-0.42083 0.2475-0.47823 2.0505-0.47559 1.8612 3e-3 6.3432 0.60934 9.7125 1.3145 3.8431 0.80437 11.925 4.1533 14.186 5.8785 2.0276 1.547 2.4468 1.9896 2.2845 2.4125-0.36333 0.94684-5.1299 3.2866-7.6551 3.7577l-0.98519 0.18379zm-10.264-0.75965c-2.1542-1.1341-4.6128-3.0489-5.8731-4.5741-1.2278-1.4858-2.5607-3.8256-2.3178-4.0686 0.22634-0.22634 3.3243 1.3156 5.4716 2.7233 2.165 1.4194 5.1851 4.358 5.4133 5.2672 0.41708 1.6618-0.40037 1.8596-2.694 0.65214zm56.65-1.8253c0.08994-0.14552 0.21603-0.26458 0.2802-0.26458 0.06417 0 0.11668 0.11906 0.11668 0.26458s-0.12609 0.26459-0.2802 0.26459c-0.15411 0-0.20661-0.11907-0.11668-0.26459zm14.015-0.0133c-0.25141-0.40679 0.093-0.66925 0.43255-0.32966 0.19002 0.19001 0.19458 0.33801 0.0139 0.44969-0.14814 0.0916-0.34903 0.0375-0.44642-0.12003zm99.888-0.26691c0-0.15411 0.11907-0.20662 0.26459-0.11668 0.14552 0.0899 0.26458 0.21603 0.26458 0.2802 0 0.0642-0.11906 0.11667-0.26458 0.11667s-0.26459-0.12609-0.26459-0.28019zm-148.82-6.7353c-6.295-3.5679-20.17-5.749-28.795-4.5264-2.741 0.38855-2.9055 0.29446-2.7844-1.593 0.08115-1.2646 0.08632-1.271 1.2721-1.5726 8.4822-2.157 23.717-2.2431 31.882-0.18025l1.8521 0.46792 0.07878 1.3547c0.0997 1.7144-1.0889 6.4088-1.7217 6.7999-0.12121 0.0749-0.92428-0.26275-1.7846-0.75035z" fill="#c0700b"/>
   <path d="m42.655 150.96c-2.0413-0.80971-3.9852-4.0675-4.165-6.9801-0.08282-1.342-0.01-1.9904 0.26441-2.3542 0.34258-0.45418 0.39286-0.31493 0.52708 1.4598 0.21435 2.8342 1.3414 4.9934 3.7429 7.1703 1.0727 0.97238 0.94076 1.2238-0.36939 0.70416zm-2.1167-2.8791c-0.15576-0.29104-0.34273-0.52916-0.41549-0.52916-0.07276 0-0.0048 0.23812 0.15091 0.52916 0.15576 0.29104 0.34273 0.52917 0.41549 0.52917s0.0048-0.23813-0.15091-0.52917zm-0.70245-1.202c-0.08617-0.22456-0.21342-0.35155-0.28277-0.28219-0.06936 0.0693-0.04762 0.25308 0.0483 0.40829 0.26089 0.42213 0.41338 0.34012 0.23447-0.1261zm5.0681 2.9502c-1.9187-0.84068-3.9094-3.9591-4.2458-6.6509-0.20452-1.6369-0.05174-2.2315 0.84799-3.3008 0.86959-1.0334 1.9695-1.0452 3.5578-0.0379 3.4648 2.1973 4.911 8.8198 2.1961 10.057-0.83948 0.3825-1.3637 0.36753-2.3561-0.0672zm2.9036-0.94129c0.56274-1.0882 0.50329-3.1666-0.13972-4.8852-1.0326-2.76-3.872-5.1405-5.2509-4.4025-1.9608 1.0494-1.7575 4.7253 0.43175 7.8079 1.0546 1.4849 2.2763 2.2582 3.5698 2.2595 0.82407 8e-4 1.0515-0.1268 1.3891-0.77962zm-21.244-2.7986c-2.84-3.2289-5.7057-8.6853-6.7923-12.933-1.1827-4.6233-1.3228-9.7622-0.39636-14.546 0.76555-3.9531 3.2299-9.3442 5.7228-12.519 0.77688-0.98944 1.6221-2.1256 1.8782-2.5249 0.25615-0.39927 0.54115-0.72669 0.63334-0.72761 0.09219-9.2e-4 0.2505 0.802 0.35181 1.7843 0.69332 6.7223 4.1745 12.755 9.4628 16.399 2.2231 1.5318 4.0028 2.4584 5.9386 3.092 0.75278 0.24638 1.5085 0.61643 1.6794 0.82234 0.33359 0.40194 0.2295 0.46338-2.9158 1.721-4.9953 1.9974-9.5573 6.2331-12.106 11.24-0.82811 1.6268-1.6728 4.6507-2.0095 7.194l-0.30409 2.2967zm47.048 0.12843c0-1.6862-0.76356-4.9683-1.656-7.1183-2.5595-6.166-7.803-11.015-14.167-13.1-1.9221-0.6299-1.7555-1.1252 0.68109-2.0246 8.3155-3.0695 14.349-10.712 15.045-19.059 0.09535-1.1434 0.24555-2.0734 0.33377-2.0667 0.32823 0.0249 3.3725 4.1226 4.4021 5.9253 2.0263 3.5479 2.9202 5.7769 3.8789 9.673 0.44464 1.8069 0.55568 3.107 0.56498 6.6146 0.01035 3.9015-0.0647 4.665-0.70575 7.1809-1.1128 4.3674-2.6135 7.7648-4.8753 11.037-1.2242 1.7712-3.1035 4.0067-3.3684 4.0067-0.07314 0-0.13298-0.48127-0.13298-1.0695zm-19.844-0.21727c0-0.12564 0.72258-0.38177 1.6057-0.56919 2.405-0.51038 5.3497-2.4272 6.5964-4.2938 1.1889-1.7801 1.3341-1.0089 0.22418 1.1909-0.60349 1.1961-2.4897 2.6393-4.4013 3.3675-1.4028 0.53443-4.025 0.73282-4.025 0.30454zm6.0854-1.9119c0.43934-0.35936 0.48377-0.44921 0.13229-0.26756-0.86301 0.44601-1.3415 0.81239-1.0583 0.81043 0.14552-1e-3 0.56224-0.2453 0.92604-0.54287zm-7.8116-0.32921c-2.6697-1.2182-1.0602-5.0779 2.9384-7.0464 1.0913-0.53722 2.3076-0.9083 3.2606-0.99472 1.4331-0.12994 1.5772-0.0876 2.5202 0.74036 0.88899 0.78054 0.98584 0.98521 0.8711 1.8407-0.26588 1.9823-2.1892 3.9754-5.0476 5.2306-1.195 0.52474-3.6266 0.64759-4.5428 0.22951zm5.1116-0.94188c3.2788-1.6742 4.891-4.4941 3.4477-6.0304-0.69853-0.74355-2.6434-0.83608-4.4708-0.2127-2.4261 0.8276-4.9918 3.4439-5.0037 5.1025-0.0024 0.33404 0.30318 0.91488 0.67906 1.2908 0.63093 0.63093 0.81886 0.67368 2.4474 0.55678 1.0761-0.0773 2.2072-0.35292 2.9004-0.7069zm-8.1479-5.9365c0-0.0481 0.54786-0.48088 1.2175-0.96175 2.1719-1.5598 3.773-4.1688 4.4683-7.2814 0.30019-1.3438 0.72966-0.0904 0.52642 1.5364-0.35152 2.8135-3.6206 6.7943-5.5796 6.7943-0.34791 0-0.63257-0.0393-0.63257-0.0874zm-3.6511-1.772c-0.72112-0.67182-0.94864-1.5522-0.78239-3.0272 0.44349-3.9346 4.7555-7.8948 7.4643-6.8553 1.2588 0.48305 1.5392 3.0878 0.58261 5.4129-0.84848 2.0625-1.856 3.2825-3.4767 4.2097-1.644 0.94059-2.9602 1.0309-3.7879 0.25983zm3.5664-0.56053c2.0977-1.2734 3.782-4.1893 3.7862-6.5551 0.0032-1.7736-0.47787-2.4021-1.8387-2.4021-2.7212 0-5.8128 3.8159-5.8258 7.1907-0.0051 1.3182 0.08117 1.5706 0.70444 2.0608 0.81323 0.63969 1.7834 0.54971 3.1739-0.29438zm4.3662-13.781c0.04965-1.3207-0.96556-2.9197-2.7176-4.2803-1.7416-1.3525-4.4698-2.9387-6.5911-3.8322-0.80036-0.33712-1.8124-0.76248-2.249-0.94525-1.3065-0.54695-3.5879-1.154-5.5562-1.4784-1.8729-0.30867-2.5135-0.72272-2.5135-1.6244 0-0.42083 0.2475-0.47823 2.0505-0.47559 1.8612 3e-3 6.3432 0.60934 9.7125 1.3145 3.8431 0.80437 11.925 4.1533 14.186 5.8785 2.0276 1.547 2.4468 1.9896 2.2845 2.4125-0.36333 0.94684-5.1299 3.2866-7.6551 3.7577l-0.98519 0.18379zm2.333-0.0506c2.1689-0.6746 4.5885-1.9218 5.8208-3.0005 0.07276-0.0637-0.4012-0.59097-1.0533-1.1717-3.4501-3.073-10.964-6.058-18.526-7.3598-2.9963-0.51582-7.6768-0.71654-7.6689-0.32888 0.0108 0.52879 0.55252 0.77347 2.3772 1.0737 7.6949 1.266 17.198 7.021 17.198 10.415 0 0.85324 0.18583 0.8906 1.8521 0.37234zm-12.597-0.70908c-2.1542-1.1341-4.6128-3.0489-5.8731-4.5741-1.2278-1.4858-2.5607-3.8256-2.3178-4.0686 0.22634-0.22634 3.3243 1.3156 5.4716 2.7233 2.165 1.4194 5.1851 4.358 5.4133 5.2672 0.41708 1.6618-0.40037 1.8596-2.694 0.65214zm2.2779-0.18638c0-1.0109-2.5622-3.6096-5.5113-5.5899-1.7254-1.1586-3.9689-2.2674-4.1736-2.0628-0.26304 0.26304 2.1598 3.4573 3.6348 4.7921 1.6026 1.4502 4.7332 3.3165 5.5871 3.3307 0.27286 5e-3 0.46302-0.18855 0.46302-0.47009zm54.372-1.6389c0.08994-0.14552 0.21603-0.26458 0.2802-0.26458 0.06417 0 0.11668 0.11906 0.11668 0.26458s-0.12609 0.26459-0.2802 0.26459c-0.15411 0-0.20661-0.11907-0.11668-0.26459zm14.015-0.0133c-0.25141-0.40679 0.093-0.66925 0.43255-0.32966 0.19002 0.19001 0.19458 0.33801 0.0139 0.44969-0.14814 0.0916-0.34903 0.0375-0.44642-0.12003zm99.888-0.26691c0-0.15411 0.11907-0.20662 0.26459-0.11668 0.14552 0.0899 0.26458 0.21603 0.26458 0.2802 0 0.0642-0.11906 0.11667-0.26458 0.11667s-0.26459-0.12609-0.26459-0.28019zm-148.82-6.7353c-6.295-3.5679-20.17-5.749-28.795-4.5264-2.741 0.38855-2.9055 0.29446-2.7844-1.593 0.08115-1.2646 0.08632-1.271 1.2721-1.5726 8.4822-2.157 23.717-2.2431 31.882-0.18025l1.8521 0.46792 0.07878 1.3547c0.0997 1.7144-1.0889 6.4088-1.7217 6.7999-0.12121 0.0749-0.92428-0.26275-1.7846-0.75035zm2.3224-1.6496c0.35071-1.1278 0.71162-2.7982 0.80202-3.712 0.19806-2.002 0.394-1.881-4.3496-2.6867-8.27-1.4047-19.197-1.2426-27.471 0.40763-1.079 0.21519-2.0612 0.45272-2.1828 0.52786-0.12157 0.0751-0.22104 0.67583-0.22104 1.3349v1.1983l1.0387-0.17548c5.3516-0.90415 14.267-0.44763 20.922 1.0714 2.7908 0.63698 7.1568 2.1816 8.8635 3.1357 0.87312 0.4881 1.6716 0.90131 1.7744 0.91825 0.10281 0.0169 0.47387-0.89195 0.82458-2.0197z" fill="#b46e16"/>
   <path d="m26.563 146.09c-2.84-3.2289-5.7057-8.6853-6.7923-12.933-1.1827-4.6233-1.3228-9.7622-0.39636-14.546 0.76555-3.9531 3.2299-9.3442 5.7228-12.519 0.77688-0.98944 1.6221-2.1256 1.8782-2.5249 0.25615-0.39927 0.54115-0.72669 0.63334-0.72761 0.09219-9.2e-4 0.2505 0.802 0.35181 1.7843 0.69332 6.7223 4.1745 12.755 9.4628 16.399 2.2231 1.5318 4.0028 2.4584 5.9386 3.092 0.75278 0.24638 1.5085 0.61643 1.6794 0.82234 0.33359 0.40194 0.2295 0.46338-2.9158 1.721-4.9953 1.9974-9.5573 6.2331-12.106 11.24-0.82811 1.6268-1.6728 4.6507-2.0095 7.194l-0.30409 2.2967zm47.048 0.12843c0-1.6862-0.76356-4.9683-1.656-7.1183-2.5595-6.166-7.803-11.015-14.167-13.1-1.9221-0.6299-1.7555-1.1252 0.68109-2.0246 8.3155-3.0695 14.349-10.712 15.045-19.059 0.09535-1.1434 0.24555-2.0734 0.33377-2.0667 0.32823 0.0249 3.3725 4.1226 4.4021 5.9253 2.0263 3.5479 2.9202 5.7769 3.8789 9.673 0.44464 1.8069 0.55568 3.107 0.56498 6.6146 0.01035 3.9015-0.0647 4.665-0.70575 7.1809-1.1128 4.3674-2.6135 7.7648-4.8753 11.037-1.2242 1.7712-3.1035 4.0067-3.3684 4.0067-0.07314 0-0.13298-0.48127-0.13298-1.0695zm26.061-28.035c0.08994-0.14552 0.21603-0.26458 0.2802-0.26458 0.06417 0 0.11668 0.11906 0.11668 0.26458s-0.12609 0.26459-0.2802 0.26459c-0.15411 0-0.20661-0.11907-0.11668-0.26459zm14.015-0.0133c-0.25141-0.40679 0.093-0.66925 0.43255-0.32966 0.19002 0.19001 0.19458 0.33801 0.0139 0.44969-0.14814 0.0916-0.34903 0.0375-0.44642-0.12003zm99.888-0.26691c0-0.15411 0.11907-0.20662 0.26459-0.11668 0.14552 0.0899 0.26458 0.21603 0.26458 0.2802 0 0.0642-0.11906 0.11667-0.26458 0.11667s-0.26459-0.12609-0.26459-0.28019z" fill="#1c5377"/>
  </g>
 </g>
</svg>
