<?xml version="1.0" encoding="UTF-8"?>
<!-- Created with Inkscape (http://www.inkscape.org/) -->
<svg width="837.92" height="298.4" version="1.1" viewBox="0 0 837.92 298.4" xmlns="http://www.w3.org/2000/svg" xmlns:cc="http://creativecommons.org/ns#" xmlns:dc="http://purl.org/dc/elements/1.1/" xmlns:rdf="http://www.w3.org/1999/02/22-rdf-syntax-ns#">
 <metadata>
  <rdf:RDF>
   <cc:Work rdf:about="">
    <dc:format>image/svg+xml</dc:format>
    <dc:type rdf:resource="http://purl.org/dc/dcmitype/StillImage"/>
    <dc:title/>
   </cc:Work>
  </rdf:RDF>
 </metadata>
 <defs>
  <clipPath id="clipPath86">
   <rect x="2.297" y="3.1342" width="254.21" height="299.38" fill="#c1710c"/>
  </clipPath>
  <clipPath id="clipPath90">
   <rect x="2.297" y="3.1342" width="254.21" height="299.38" fill="#c1710c"/>
  </clipPath>
  <clipPath id="clipPath94">
   <rect x="2.297" y="3.1342" width="254.21" height="299.38" fill="#c1710c"/>
  </clipPath>
  <clipPath id="clipPath98">
   <rect x="2.297" y="3.1342" width="254.21" height="299.38" fill="#c1710c"/>
  </clipPath>
  <clipPath id="clipPath102">
   <rect x="2.297" y="3.1342" width="254.21" height="299.38" fill="#c1710c"/>
  </clipPath>
  <clipPath id="clipPath106">
   <rect x="2.297" y="3.1342" width="254.21" height="299.38" fill="#c1710c"/>
  </clipPath>
  <clipPath id="clipPath110">
   <rect x="2.297" y="3.1342" width="254.21" height="299.38" fill="#c1710c"/>
  </clipPath>
 </defs>
 <g transform="translate(-27.157 -11.992)">
  <path d="m60.572 241.64c-7.8994-9.214-11.284-14.183-16.602-24.374-8.9087-17.071-12.523-29.461-13.94-47.791-1.9663-25.434 3.8475-50.542 16.631-71.824 3.4542-5.7504 13.057-18.45 16.272-21.519 2.7615-2.6364 2.7257-2.699 3.8949 6.8213 2.2826 18.586 9.747 35.267 21.593 48.253 8.2212 9.0126 14.939 14.014 26.318 19.593 5.9183 2.9019 11.299 5.2762 11.956 5.2762 1.5695 0 5.2305 2.9034 5.2305 4.1481 0 1.5313-2.6114 3.5075-5.7975 4.3872-1.6038 0.44281-5.709 2.1321-9.1226 3.7539-28.661 13.617-47.006 39.052-50.363 69.83-0.49379 4.5271-1.1384 8.231-1.4324 8.231-0.294 0-2.3808-2.1535-4.6373-4.7855z" fill="#1d5479" stroke-width=".76568"/>
  <path d="m237.29 245.21c-0.25426-0.66259-0.46229-2.944-0.46229-5.0697 0-6.4657-3.6801-20.985-7.2615-28.649-4.8989-10.483-9.7696-17.503-17.53-25.264-9.9049-9.9056-19.406-15.865-34.166-21.429-9.3044-3.5076-8.7639-5.6534 2.5717-10.209 18.694-7.513 31.081-17.24 42.064-33.03 7.7591-11.155 13.15-25.996 14.039-38.651 0.66812-9.5048 1.0882-9.9819 5.015-5.6959 12.605 13.758 23.264 33.031 28.14 50.884 5.2365 19.17 5.2111 45.514-0.0626 64.716-0.87002 3.1679-1.872 6.449-2.2268 7.2912-0.3547 0.84224-1.7149 4.1155-3.0227 7.274-4.7759 11.534-12.378 23.891-20.252 32.919-5.0262 5.7627-6.1985 6.6038-6.8472 4.9133z" fill="#1d5479" stroke-width=".76568"/>
  <g fill="#3977af" stroke-width=".76568">
   <path d="m135.22 306.8c-3.8709-0.36857-9.5561-1.1978-12.634-1.8427-3.0776-0.64494-7.3185-1.4944-9.4241-1.8877-4.8568-0.90719-15.096-4.6349-21.269-7.7436-13.515-6.8056-20.118-13.732-23.422-24.569-1.7155-5.6265-3.6656-17.961-2.9525-18.674 0.24557-0.24556 1.9351 0.57405 3.7544 1.8214 8.7957 6.0301 24.118 11.015 40.443 13.159 3.5796 0.46998 9.0924 1.1987 12.251 1.6194 9.522 1.2683 37.048 1.7416 47.472 0.81618 20.517-1.8213 25.513-2.4178 33.478-3.9967 8.628-1.7102 20.14-5.258 24.713-7.6161 1.4739-0.75999 4.4027-2.6206 6.5083-4.1346l3.8284-2.7528 0.25337 2.0391c0.13936 1.1215-0.48943 5.1049-1.3973 8.8519-0.90787 3.7471-1.8101 7.7438-2.005 8.8817-0.6506 3.7991-4.0775 9.6843-8.004 13.745-2.1375 2.2109-4.0707 4.0198-4.2959 4.0198-0.22518 0-1.4597 0.88376-2.7434 1.9639-4.6082 3.8776-20.014 10.454-29.663 12.662-7.2197 1.6521-10.657 2.2985-14.165 2.6641-18.196 1.8958-28.468 2.1415-40.728 0.97415z"/>
   <path d="m65.311 66.3c1.89e-4 -3.579 1.9709-13.251 3.7371-18.34 2.4083-6.9401 6.0102-11.741 12.342-16.451 5.6023-4.1669 15.589-9.4269 17.898-9.4269 0.63443 0 1.3393-0.30069 1.5665-0.6682 0.39715-0.6426 11.245-3.6895 19.202-5.3935 16.498-3.5329 45.109-3.555 63.551-0.04921 17.567 3.3394 33.03 10.048 41.731 18.103 4.2981 3.9793 8.6591 11.141 9.482 15.572 0.19552 1.0528 0.69044 2.9479 1.0998 4.2112 0.40938 1.2634 1.1817 4.8065 1.7163 7.8737 1.2494 7.1681 0.37292 8.4911-3.3016 4.9834-8.206-7.8335-33.105-13.755-65.658-15.614-17.858-1.0198-50.545 0.26523-60.106 2.3631-1.6845 0.3696-5.3023 1.0837-8.0396 1.5868-13.46 2.474-24.056 6.3903-30.436 11.249-1.7971 1.3687-3.609 2.4885-4.0264 2.4885-0.41748 0-0.759-1.1198-0.75892-2.4885z"/>
   <path transform="translate(25.035 9.1192)" d="m285.26 184.77c-0.18007-0.3753-0.20416-3.3268-0.0535-6.559l0.27386-5.8766 2.9602-0.50011c1.6281-0.27507 3.3136-0.92594 3.7455-1.4464 1.0338-1.2456 2.3513-12.977 2.3592-21.007 3e-3 -3.5071 0.33601-10.398 0.73901-15.314 0.40301-4.9154 0.87436-12.986 1.0475-17.934l0.31473-8.9967h-7.4547v-13.017h27.454l1.5864 4.24c0.8725 2.332 1.5864 4.675 1.5864 5.2066 0 0.53166 0.29141 1.294 0.64758 1.694 0.35617 0.40007 4.577 11.144 9.3796 23.876 4.8026 12.732 9.048 23.049 9.4342 22.928 0.71235-0.22444 6.3017-13.405 6.8761-16.215 0.17217-0.84225 1.1664-3.5987 2.2093-6.1254 1.9561-4.739 3.2854-8.2535 9.5568-25.267l3.669-9.9538 27.139-0.41818v6.0612c0 6.5833-0.27135 6.9907-4.6567 6.9907h-2.2344l0.0512 10.145c0.0282 5.5799 0.63115 19.965 1.3399 31.967l1.2887 21.822 8.0396 1.428v11.971h-16.373c-16.332 0-16.374-5e-3 -16.834-1.7228-0.62125-2.3182-0.51031-6.7362 0.2158-8.5944 0.37655-0.96365 1.8147-1.809 3.966-2.3312l3.3752-0.81938 0.24638-5.7084c0.28776-6.6667-1.1497-31.502-2.0083-34.698-0.47202-1.7571-0.7584-1.9846-1.446-1.1485-0.78983 0.96038-9.6997 23.366-15.539 39.077l-2.4687 6.642-5.6516 0.24912c-7.8503 0.34604-8.8776-0.0185-10.17-3.609-0.60063-1.6682-2.9509-7.8568-5.2229-13.753s-4.8554-12.615-5.741-14.931c-3.9783-10.405-6.2661-15.332-6.8483-14.75-0.6569 0.6569-2.164 26.573-2.1823 37.529l-0.0106 6.3169h7.6568v12.251l-8.6139 4e-3c-4.7376 2e-3 -11.923 0.22312-15.967 0.49097-4.0942 0.27115-7.4985 0.18456-7.6808-0.19539z" clip-path="url(#clipPath110)"/>
   <path transform="translate(25.035 9.1192)" d="m415.53 212.01c-1.8951-0.38454-4.8921-1.246-6.66-1.9143-2.9613-1.1195-3.2547-1.4839-3.7262-4.6281-0.28149-1.8771-0.27184-6.2936 0.0214-9.8144l0.53324-6.4015 6.2358-0.79608c3.4297-0.43785 6.4614-0.65668 6.7371-0.48631s0.6545 2.4289 0.84185 5.019c0.40937 5.6595 1.2463 6.4572 7.5406 7.1878 7.1071 0.82487 11.599-0.098 15.112-3.1049 4.5374-3.8838 5.5232-6.6061 5.5232-15.252v-7.4018l-2.2586 1.6082c-1.2422 0.88454-4.2526 2.5212-6.6898 3.6369-3.7511 1.7173-5.4919 2.0287-11.342 2.0287-5.7569 0-7.6126-0.32139-11.112-1.9246-8.5077-3.8972-10.335-9.5497-11.16-34.514-0.34568-10.469-0.84018-16.49-1.3838-16.852-0.46527-0.3094-1.9658-0.56781-3.3344-0.57426l-2.4885-0.0117v-12.251h25.119l0.26539 23.681c0.25355 22.623 0.33707 23.777 1.8699 25.842 3.3942 4.5716 10.518 4.8081 15.616 0.51835 4.491-3.779 4.9243-5.465 5.1855-20.179 0.2835-15.972-0.0453-17.103-5.0776-17.467l-3.3092-0.239 0.54159-5.5036c0.29787-3.027 0.58911-5.5533 0.64719-5.614 0.0581-0.0607 5.5389-0.36121 12.18-0.6677l12.074-0.55727-0.26578 36.655c-0.14619 20.16-0.46599 37.912-0.71067 39.45-1.2125 7.6171-7.0786 15.334-14.257 18.756-4.0538 1.9322-5.0773 2.0721-16.571 2.2658-6.738 0.11353-13.801-0.10821-15.696-0.49275z" clip-path="url(#clipPath106)"/>
   <path transform="translate(25.035 9.1192)" d="m479.66 184.69-3.637-0.3041v-5.7196c0-5.4351 0.0977-5.7567 1.964-6.4663 1.0802-0.4107 2.7635-0.74673 3.7407-0.74673h1.7767l0.52734-22.396c0.29004-12.318 0.41564-26.875 0.27911-32.35l-0.24823-9.9538-4.0198-0.23144c-3.9926-0.22986-4.0198-0.24859-4.0198-2.7644 0-1.3932 0.21912-4.1316 0.48692-6.0854l0.48691-3.5524h32.78l-0.22363 5.9179c-0.22074 5.8414-0.25336 5.9267-2.5207 6.5978-1.2634 0.37391-2.8139 0.93293-3.4456 1.2423-1.7363 0.85026-2.5539 7.45-1.939 15.652l0.55052 7.3428h35.844v-23.539l-7.6568-1.0157v-12.198h33.69v5.6974c0 6.2023-0.23966 6.5847-4.5681 7.288l-2.7059 0.43968-0.20003 31.712c-0.15682 24.862 9e-3 31.845 0.76568 32.325 0.53114 0.33717 2.0453 0.61832 3.3649 0.62477 1.8355 9e-3 2.5076 0.41647 2.8608 1.7345 0.66195 2.47 0.56712 8.4438-0.15203 9.5766-0.43949 0.69224-4.9265 1.1019-15.972 1.4584-8.4486 0.27264-15.835 0.31487-16.413 0.0939-0.80237-0.30641-0.99329-1.8713-0.8038-6.5884l0.24852-6.1865 6.5738-0.9858 0.48442-4.6347c0.26643-2.5491 0.48442-8.202 0.48442-12.562v-7.9273h-36.024l0.41986 25.65 6.5083 0.47089v11.995l-2.8713 0.36201c-3.4503 0.435-21.313 0.4524-26.416 0.0257z" clip-path="url(#clipPath102)"/>
   <path transform="translate(25.035 9.1192)" d="m595.46 186.3c-3.2628-0.62266-9.8451-3.4498-10.849-4.6599-0.52564-0.63336-1.7171-1.4411-2.6478-1.7949-1.7998-0.68429-2.3478-1.5058-6.1503-9.2194-2.8579-5.7974-5.2724-17.536-4.5896-22.313 2.5235-17.657 7.3758-25.842 18.562-31.309 5.1181-2.5016 5.5953-2.5868 14.481-2.5843 7.8342 2e-3 9.7242 0.24971 12.826 1.68 5.4318 2.5049 11.485 8.6288 14.062 14.226 2.0574 4.4687 2.2102 5.4938 2.4624 16.521 0.23998 10.496 0.0865 12.324-1.431 17.043-3.44 10.698-9.2211 17.214-18.315 20.64-4.1113 1.5492-14.388 2.537-18.41 1.7696zm11.713-13.577c7.079-2.9578 10.304-12.084 9.4638-26.777-0.40879-7.1446-0.77564-8.8878-2.4838-11.803-3.4891-5.9537-4.1418-6.3266-11.073-6.3266-5.7307 0-6.3009 0.14738-8.1462 2.1056-3.7339 3.9623-5.078 8.2704-5.4346 17.419-0.56768 14.564 1.9526 21.955 8.4997 24.928 3.8241 1.7362 5.8631 1.837 9.1741 0.4536z" clip-path="url(#clipPath98)"/>
   <path transform="translate(25.035 9.1192)" d="m660.16 184.95c-6.1471-2.1464-9.4844-5.3441-11.068-10.605-1.3824-4.5921-2.2568-16.412-2.3096-31.221-0.0248-6.9485-0.34849-13.113-0.7193-13.698-0.37082-0.58557-2.0022-1.2795-3.6253-1.542l-2.951-0.47734-0.22255-5.4206-0.22254-5.4206 12.026-0.46964c6.6142-0.25831 12.303-0.29858 12.641-0.0895s0.61608 11.103 0.61726 24.209c2e-3 23.259 0.0439 23.913 1.7467 27.343 1.4062 2.8322 2.3586 3.7259 4.9109 4.6083 2.8594 0.98853 3.5249 0.95772 6.8649-0.31782 2.0342-0.77687 4.9993-2.6477 6.5892-4.1574l2.8907-2.7449-0.49712-18.568-0.49711-18.568h-2.8523c-2.3107 0-2.94-0.32713-3.314-1.7228-0.71991-2.6863-0.56225-9.6228 0.22984-10.112 0.39184-0.24217 6.077-0.209 12.634 0.0737l11.921 0.51402v27.446c0 26.197 0.0644 27.446 1.4171 27.446 0.77941 0 2.5022 0.37826 3.8284 0.84058l2.4113 0.84058v11.335h-11.403c-12.325 0-12.333-3e-3 -12.333-4.3214v-1.8992l-3.2793 2.355c-4.3242 3.1054-10.357 5.3398-15.725 5.824-3.3732 0.30427-5.551-0.0275-9.7085-1.4792z" clip-path="url(#clipPath94)"/>
   <path transform="translate(25.035 9.1192)" d="m720.27 178.73v-5.7426h2.6365c4.8188 0 5.0203-0.90681 5.0203-22.588 0-21.916-0.15775-22.588-5.3042-22.588h-2.9204l-0.52797-5.3581c-0.29039-2.947-0.31457-5.7034-0.0538-6.1254 0.2837-0.45903 5.2243-0.76732 12.297-0.76732h11.823v6.9936l3.2541-2.6358c1.7898-1.4497 4.4445-3.2409 5.8994-3.9804 5.6567-2.8754 18.133-2.114 21.219 1.295 1.163 1.2847 1.449 3.1558 1.6703 10.93l0.2671 9.3803-2.4684 0.49369c-1.3576 0.27153-4.4771 0.49368-6.9321 0.49368h-4.4637l-0.46165-2.8713c-1.1143-6.9303-0.76962-6.5371-5.3938-6.1536-3.0318 0.25142-4.7306 0.85481-6.1865 2.1973-3.7499 3.4579-4.1067 5.4712-4.1067 23.174v16.396l3.4018 0.85657c1.871 0.47112 4.4552 0.85658 5.7426 0.85658h2.3408v11.485h-36.753z" clip-path="url(#clipPath90)"/>
   <path transform="translate(25.035 9.1192)" d="m799.52 186.33c-7.4866-1.0012-13.385-2.1899-15.99-3.2222l-2.9732-1.1785 0.48472-5.7342c0.2666-3.1538 0.48472-7.5501 0.48472-9.7694v-4.0352l5.818-0.25191c3.1999-0.13855 5.9874 0.0238 6.1944 0.36084 0.207 0.33702 0.60374 2.1951 0.88164 4.1291 0.70309 4.8929 2.8503 6.3461 10.133 6.8575 5.5206 0.38768 5.7695 0.32895 8.5573-2.0188 2.865-2.4128 3.6003-4.8757 2.394-8.0192-0.66858-1.7423-4.7824-3.6873-13.689-6.4724-9.1956-2.8753-14.167-5.8391-17.018-10.145-1.9281-2.9125-2.1225-3.8427-2.1225-10.154 0-7.3223 0.53213-10.377 2.1068-12.095 0.52577-0.57364 1.3335-1.7103 1.7949-2.5258s3.3976-2.8094 6.5249-4.4308c4.77-2.473 6.6701-3.0147 11.795-3.3628 7.2696-0.49378 15.809 0.70578 21.725 3.0516l4.2914 1.7018v17.604l-12.634 0.44477v-2.661c0-6.1291-2.5816-8.1204-10.528-8.1204-3.7255 0-4.453 0.27949-6.7769 2.6033-2.9012 2.9012-3.1356 4.1002-1.4418 7.3756 1.413 2.7324 3.8255 4.0291 13.654 7.339 14.085 4.7434 18.789 9.2533 19.462 18.66 0.56143 7.8466-0.77714 11.795-5.6029 16.526-3.7914 3.7168-4.952 4.3796-11.111 6.3444-3.0165 0.96226-12.827 1.6791-16.414 1.1994z" clip-path="url(#clipPath86)"/>
  </g>
  <g fill="#c1710c" stroke-width=".76568">
   <path d="m133.93 200.47c-5.599-1.6964-7.5542-6.957-5.9075-15.894 1.2645-6.8628 3.4777-11.142 8.5866-16.604 4.743-5.0702 11.215-8.8304 15.199-8.8304 3.6738 0 7.4546 1.9363 8.7781 4.4957 2.5652 4.9607 0.87695 15.578-3.726 23.433-5.234 8.9311-16.313 15.405-22.931 13.4z"/>
   <path d="m141.69 205.41c-0.31693-0.32247 1.3144-1.6579 3.6251-2.9676 4.4194-2.5048 9.1924-6.6624 12.246-10.667 4.3393-5.6906 8.0582-15.8 8.0582-21.906 0-3.1938 1.2671-3.5052 2.7325-0.67135 1.7712 3.4252 1.597 10.752-0.38151 16.04-4.1734 11.154-13.302 19.746-21.711 20.432-2.1963 0.17935-4.2526 0.0622-4.5695-0.26023z"/>
   <path d="m155.82 231.12c-10.337-4.6916-4.465-19.989 10.59-27.589 6.124-3.0914 13.558-4.757 18.378-4.1176 3.0341 0.40249 4.2741 1.0338 6.0879 3.0996 1.2528 1.4268 2.5002 3.4805 2.772 4.5637 0.60748 2.4204-0.78217 7.2778-3.1325 10.949-6.9168 10.805-24.838 17.568-34.695 13.094z"/>
   <path d="m160.71 239.33c-1.6436-0.9406-3.0218-2.0354-3.0627-2.4329-0.0409-0.39748 1.8207-0.64333 4.1369-0.54634 12.32 0.5159 28.472-9.0149 33.411-19.715 2.532-5.4851 4.6494-2.0609 2.6704 4.3184-4.1513 13.382-26.537 24.453-37.156 18.376z"/>
   <path d="m128.86 254.28c-3.4365-1.6713-9.5631-7.9107-11.505-11.717-6.8965-13.518-6.5002-25.326 0.98754-29.421 2.4764-1.3543 3.136-1.4121 6.3382-0.55567 10.334 2.7639 19.056 15.024 20.051 28.185 0.70279 9.2924-3.1661 14.872-10.283 14.829-1.6001-0.01-4.1153-0.60394-5.5892-1.3208z"/>
   <path d="m121.91 259.02c-4.7212-1.4546-11.413-8.4826-14.699-15.438-2.2859-4.838-2.456-5.7644-2.4617-13.407-6e-3 -7.7913 0.0939-8.3104 1.9543-10.174l1.9604-1.9639 0.85966 9.1374c0.71191 7.567 1.2522 9.9151 3.1437 13.662 3.1363 6.2131 8.5413 12.642 13.127 15.613 2.1085 1.3663 3.8337 2.7707 3.8337 3.1209 0 0.94384-3.7316 0.67782-7.7174-0.55014z"/>
   <path d="m207.34 110.42c-4.1593-3.3479-21.374-10.058-34.217-13.337-23.987-6.1243-54.232-8.3541-76.497-5.6396-5.4797 0.66807-10.461 1.0234-11.07 0.78971-0.84586-0.32458-1.1074-1.961-1.1074-6.9278v-6.5028l2.8713-0.76939c4.0579-1.0874 17.394-3.5617 27.756-5.1496 7.2209-1.1066 13.972-1.3511 37.518-1.3588 30.213-0.0098 35.248 0.38643 53.598 4.2179 11.51 2.4034 12.228 2.7246 12.394 5.5487 0.0785 1.336 0.21952 3.635 0.31339 5.109 0.22797 3.5796-3.0549 17.012-5.2266 21.385-1.91 3.8464-3.8324 4.6463-6.3318 2.6344z"/>
   <path d="m158.72 147.31c0-0.19074 0.3994-1.2234 0.88756-2.2948 3.0449-6.6829-8.6046-18.48-27.631-27.98-10.783-5.3845-20.302-8.6688-33.362-11.512-1.6845-0.36665-4.8271-1.0524-6.9836-1.524-4.1292-0.90287-5.6501-2.6368-5.6501-6.4414 0-2.1924 1.6304-2.7156 8.4225-2.7029 5.4993 0.01028 28.061 3.07 36.213 4.9111 7.5837 1.7127 26.736 8.2408 35.525 12.109 14.745 6.4893 30.129 17.5 28.906 20.688-1.1381 2.9659-13.867 9.9334-23.924 13.095-5.5667 1.7503-12.403 2.6607-12.403 1.6517z"/>
   <path d="m123.6 142.66c-2.2603-1.0522-5.637-2.9439-7.5038-4.2038-1.8667-1.2598-3.6627-2.2906-3.9911-2.2906s-3.6706-3.0529-7.427-6.7843c-6.4033-6.3605-14.87-18.49-14.87-21.303 0-4.4637 23.101 8.3777 35.485 19.725 5.6662 5.192 9.1223 11.223 8.4124 14.679-0.37654 1.8332-0.79234 2.1046-3.2145 2.0981-1.5301-4e-3 -4.6314-0.8684-6.8918-1.9206z"/>
  </g>
  <g fill="#c1710c"></g>
  <g fill="#3977af" stroke-width=".35355">
   <path d="m310.27 204.09c0.12759-2.6915 0.3412-5.3909 0.47469-5.9987 0.28362-1.2913 1.2458-1.7698 3.559-1.7698 3.2663 0 3.8672-1.9744 4.7346-15.556 0.41974-6.5724 2.4902-47.133 2.4902-48.782v-1.0686h-7.4246v-12.736l26.943 0.1852 1.5098 3.5355c0.83037 1.9445 5.1257 13.161 9.5452 24.926 7.9166 21.074 11.256 29.596 11.816 30.156 0.52383 0.52382 2.4019-4.1121 11.664-28.793 10.98-29.259 10.719-28.607 11.74-29.285 0.67981-0.45174 2.8775-0.55704 13.647-0.65392l12.837-0.11548v12.714l-7.4246 0.50607 1e-3 2.521c2e-3 3.2985 0.61139 19.454 1.0558 27.977 0.84616 16.227 1.8581 33.598 1.964 33.712 0.0995 0.10744 6.4411 0.70137 7.9391 0.74353 0.45529 0.0128 0.4978 0.65292 0.3004 4.5232-0.12646 2.4796-0.24579 5.1845-0.26516 6.0109l-0.0353 1.5026h-32.88v-11.607l2.74-0.22094c1.507-0.12152 3.2814-0.30596 3.9431-0.40988l1.2031-0.18894-0.23894-7.1333c-0.51831-15.473-1.3077-31.383-1.6454-33.164-0.64304-3.3907-1.5187-3.2563-3.3309 0.51137-0.69508 1.4451-4.755 11.735-9.0221 22.867-4.2671 11.132-7.8055 20.284-7.8631 20.339-0.0576 0.0549-3.2072 0.20926-6.999 0.34297l-6.8943 0.24312-2.7888-7.3682c-7.011-18.523-14.402-37.08-16-40.17-0.42485-0.82157-0.62713-0.96203-0.83667-0.58099-0.33303 0.60563-0.93027 8.9347-1.4177 19.771-0.47223 10.499-1.0137 18.701-1.4329 21.708-0.18707 1.3416-0.25804 2.5213-0.15771 2.6216 0.16381 0.16382 5.8826 0.71267 7.8733 0.75563 0.79191 0.0171 0.7955 0.0433 0.7955 5.8119v5.7947l-7.1595 0.20764c-3.9377 0.1142-11.216 0.276-16.175 0.35955l-9.0156 0.1519z"/>
   <path d="m442.91 236.25c-3.5299-0.34184-9.5175-1.8815-10.721-2.7568-1.6686-1.2135-1.9196-2.2676-2.0616-8.6577-0.22799-10.26 0.15473-11.318 4.2218-11.675 1.2426-0.10904 3.9465-0.26487 6.0087-0.3463l3.7495-0.14805 0.22843 3.7334c0.25873 4.2286 0.87735 5.904 2.5307 6.8542 1.6594 0.95363 5.8972 1.453 10.831 1.2764 4.0106-0.14358 4.6828-0.26327 6.5161-1.1602 1.161-0.56802 2.9902-1.9462 4.234-3.19 3.4521-3.4521 4.1868-6.0893 4.6187-16.578 0.20134-4.8895 0.1617-5.925-0.21781-5.6905-0.25517 0.1577-1.6723 1.1593-3.1491 2.2258-3.1639 2.2847-6.7392 4.0546-9.9331 4.917-2.9254 0.78996-12.26 0.88171-15.203 0.14941-3.0479-0.75846-6.5439-2.7533-8.375-4.7789-4.4431-4.915-5.3329-10.003-6.1593-35.217-0.22625-6.9031-0.46325-12.611-0.52665-12.685-0.0983-0.11432-4.7395-0.67364-6.0638-0.73077-0.33492-0.0145-0.44194-1.4317-0.44194-5.8527v-5.8336h24.749l0.0349 6.4524c0.0192 3.5488 0.1385 14.384 0.26517 24.079l0.2303 17.627 1.7678 1.5518c2.7295 2.396 4.4958 3.129 7.4246 3.0808 4.6556-0.0766 9.5311-2.5557 11.255-5.7228 1.6926-3.1099 2.0359-5.6504 2.2516-16.666 0.20482-10.457-0.0941-14.96-1.1256-16.954-0.59946-1.1592-2.2108-1.775-4.6532-1.7783-1.02-1e-3 -1.5312-0.17509-1.6835-0.57204-0.12032-0.31354-0.32128-2.9387-0.44658-5.8336l-0.22783-5.2636h24.859l-7e-3 31.201c-9e-3 36.728-0.31468 43.645-2.1788 49.232-1.4027 4.2043-6.1825 10.009-10.265 12.467-4.79 2.8833-9.1592 3.6357-20.741 3.5716-4.7873-0.0265-10.005-0.17415-11.595-0.32812z"/>
   <path d="m501.13 202.69c0-3.5002 0.11933-6.3683 0.26517-6.3736 1.2976-0.0469 6.9074-0.68121 7.02-0.79379 0.0797-0.0797 0.22421-10.71 0.32121-23.624s0.25213-27.417 0.34472-32.23l0.16834-8.7504h-8.2004l0.25661-6.0988c0.14114-3.3543 0.27868-6.1174 0.30566-6.1401 0.027-0.0227 7.4869-0.15213 16.578-0.28757l16.529-0.24626v2.4423c0 1.3432-0.1025 4.1176-0.22779 6.1653l-0.22779 3.723-2.2309 0.17908c-2.4884 0.19974-4.3303 1.0857-4.9973 2.4038-0.49312 0.97439-0.59846 9.4585-0.21636 17.426l0.23159 4.8289h35.953v-24.327l-7.4246-0.50606v-11.826l16.479-0.25215c9.0635-0.13868 16.551-0.17985 16.64-0.0915 0.0884 0.0884 0.0484 2.8587-0.0887 6.1564l-0.24939 5.9958-6.8913 0.87822-0.21005 11.367c-0.11552 6.252-0.27685 20.79-0.35849 32.306l-0.14844 20.939 1.1139 0.17221c0.61268 0.0947 2.347 0.27164 3.854 0.39316l2.74 0.22094v11.529l-7.513 0.20818c-4.1322 0.11449-11.665 0.27572-16.739 0.35828l-9.2256 0.15011 0.11589-1.645c0.0637-0.90474 0.21304-3.6566 0.33178-6.1153l0.21591-4.4703 0.93883-0.18724c0.51636-0.10298 1.9137-0.2973 3.1053-0.43183 1.1915-0.13452 2.3368-0.34992 2.5452-0.47867 0.25033-0.1547 0.46365-4.5764 0.62915-13.041l0.2504-12.807h-36.174v26.516h6.7175v12.728h-32.527z"/>
   <path d="m620.07 210.14c-5.0206-0.8031-10.959-4.0665-14.718-8.0882-2.1171-2.2652-4.7-6.2459-5.7846-8.9152-0.95101-2.3404-2.3674-9.0745-3.0004-14.265-1.1967-9.813 2.2944-23.022 7.9065-29.916 5.5076-6.7652 12.922-10.042 23.762-10.501 10.39-0.44037 17.387 2.4532 23.67 9.7882 5.4294 6.3383 7.2896 13.867 6.7261 27.224-0.33076 7.8395-0.87676 11.25-2.3983 14.982-4.1144 10.092-12.002 17.31-20.927 19.151-3.1892 0.65767-12.45 0.98599-15.237 0.54018zm12.298-13.276c4.5618-2.2337 7.4856-6.224 8.4716-11.562 0.66887-3.621 0.66374-20.228-7e-3 -22.917-0.57866-2.3194-2.4584-6.0527-3.9725-7.8896-2.0444-2.4803-3.3212-2.883-9.1572-2.8888-5.8964-6e-3 -6.2953 0.13806-8.8102 3.1769-1.8022 2.1777-3.0165 4.6826-3.9941 8.239-0.64142 2.3334-0.751 3.7286-0.76908 9.7922-0.0297 9.9419 1.0278 15.405 3.8294 19.785 3.1345 4.9001 9.3528 6.7405 14.409 4.2646z"/>
   <path d="m687.57 209.76c-3.6006-0.94379-7.5602-2.8646-9.399-4.5596-1.7152-1.581-3.4827-4.6008-4.1619-7.1106-1.1649-4.3046-1.4281-7.9762-1.7431-24.322-0.18299-9.4942-0.49181-17.538-0.71454-18.61-0.53206-2.5629-1.2017-3.0828-4.252-3.3011-1.9754-0.14134-2.5725-0.31885-2.8563-0.84913-0.22799-0.42601-0.2692-2.3979-0.11303-5.4088l0.24577-4.7384 2.1595-0.18568c1.1877-0.10212 6.565-0.26968 11.95-0.37235l9.79-0.18667 0.18144 1.4986c0.0998 0.82425 0.27187 10.329 0.38239 21.121 0.23354 22.805 0.49982 27.3 1.7696 29.875 1.4824 3.0064 4.9077 4.6441 8.9107 4.2605 4.3097-0.41303 7.516-2.1546 10.549-5.7302l1.9124-2.2542-0.17497-13.518c-0.0962-7.4347-0.26593-15.622-0.3771-18.193l-0.20214-4.6753-1.1133-0.17123c-0.61233-0.0942-2.0282-0.26892-3.1463-0.38831l-2.0329-0.21708v-11.622l9.8111 0.19329c5.3961 0.10631 10.789 0.27758 11.985 0.38059l2.1742 0.1873 0.20234 5.0138c0.1113 2.7576 0.27973 15.097 0.37429 27.42 0.0946 12.324 0.25495 22.489 0.35641 22.591 0.1596 0.1596 4.8672 0.70157 6.651 0.76571 0.56338 0.0203 0.61872 0.54445 0.61872 5.8608v5.8385l-22.796-0.1866-0.24974-1.7678c-0.44669-3.162-0.6691-4.0659-1.0004-4.0659-0.17916 0-1.1329 0.71685-2.1194 1.593-2.7509 2.4432-7.8939 4.834-12.892 5.9932-3.1384 0.72783-7.5482 0.66234-10.68-0.15861z"/>
   <path d="m745.08 203.75c0-3.7202 0.13072-5.3507 0.46569-5.8088 0.32447-0.44374 1.1554-0.70872 2.74-0.87382 2.7454-0.28605 3.0804-0.47316 3.7602-2.1 1.3498-3.2306 1.5784-37.55 0.27189-40.82-0.3843-0.96196-2.1406-1.7101-5.0821-2.1649-3.2328-0.49984-3.1323-0.27828-3.1811-7.0144l-0.0352-4.8614h23.688v3.5355c0 1.9445 0.1223 3.5355 0.2718 3.5355s1.4621-1.0493 2.9168-2.3317c6.2193-5.4826 11.46-7.1492 19.421-6.1765 4.3666 0.53348 7.6729 1.6687 8.643 2.9675 0.7045 0.94331 0.75 1.4933 0.8654 10.472l0.1218 9.4768-2.2431 0.42543c-1.2337 0.23399-4.17 0.51291-6.525 0.61983-3.4166 0.15512-4.343 0.0958-4.5845-0.29338-0.1665-0.26828-0.4877-2.1246-0.7137-4.1252-0.5372-4.7544-0.7725-5.0258-4.3517-5.0212-3.1309 4e-3 -5.4275 0.8898-7.7521 2.9899-3.1887 2.8808-3.4859 4.8365-3.8212 25.151l-0.2403 14.555 1.3822 0.21836c0.7602 0.12009 3.4322 0.45151 5.9377 0.73648s4.6182 0.58082 4.6948 0.65744c0.077 0.0766 0.015 2.5079-0.1361 5.4029l-0.2754 5.2636-5.4801 0.23373c-3.014 0.12855-11.168 0.29872-18.12 0.37817l-12.64 0.14444z"/>
   <path d="m827.11 210.57c-3.0292-0.24571-13.715-1.8883-15.78-2.4257-5.0293-1.3087-5.4332-2.5536-4.9093-15.131l0.258-6.191 1.819-0.18313c1.0004-0.10072 3.768-0.27366 6.15-0.3843l4.3311-0.20117v3.3801c0 3.5307 0.4328 5.1881 1.6305 6.2438 1.1847 1.0442 5.1226 2.122 8.4859 2.3227 7.0191 0.41884 11.804-2.6147 11.804-7.4837 0-4.4707-1.9388-5.8383-13.111-9.2479-2.9883-0.91203-6.5411-2.1297-7.8952-2.7059-7.1121-3.0265-11.062-7.212-12.265-12.995-0.5172-2.4876-0.202-10.218 0.5059-12.41 1.4219-4.4015 4.0425-7.7232 8.1926-10.384 5.7062-3.6592 8.5607-4.2574 18.915-3.9647 8.0254 0.22692 10.808 0.71323 16.393 2.8649l3.9362 1.5165 0.4184 3.1453c0.5358 4.028 0.6283 11.701 0.156 12.935-0.2574 0.67276-0.7568 1.0601-1.7066 1.3238-1.6633 0.46191-10.241 0.49897-10.521 0.0455-0.1126-0.18223-0.3685-1.6372-0.5686-3.2333-0.4734-3.7747-1.0286-4.8007-3.0923-5.7136-6.8424-3.0267-13.951-1.8292-16.006 2.6964-0.7877 1.7346-0.871 4.4776-0.1762 5.8038 1.4454 2.759 4.5414 4.4833 13.492 7.5145 11.328 3.8364 15.574 6.5689 18.217 11.725 1.6987 3.3138 2.2994 11.029 1.1902 15.288-1.7788 6.8295-7.5641 11.912-16.469 14.469-4.9324 1.4162-8.4639 1.7799-13.395 1.3799z"/>
  </g>
 </g>
</svg>
